<?xml version="1.0" encoding="utf-8"?>
<!-- Generator: Adobe Illustrator 16.0.0, SVG Export Plug-In . SVG Version: 6.00 Build 0)  -->
<!DOCTYPE svg PUBLIC "-//W3C//DTD SVG 1.1//EN" "http://www.w3.org/Graphics/SVG/1.1/DTD/svg11.dtd">
<svg version="1.1" id="Layer_1" xmlns="http://www.w3.org/2000/svg" xmlns:xlink="http://www.w3.org/1999/xlink" x="0px" y="0px"
	 width="56.693px" height="56.693px" viewBox="0 0 56.693 56.693" enable-background="new 0 0 56.693 56.693" xml:space="preserve">
<path id="path12604" d="M28.809,8.756c-2.597,0.018-5.283,0.707-7.39,2.373c-1.577,1.245-2.817,2.895-3.599,4.738
	c-0.001,0.004-0.002,0.009-0.004,0.013c-0.744,1.899-0.675,3.921-0.574,5.793c0,0.001,0,0.002,0,0.004
	c0.062,1.316,0.207,2.59,0.084,3.8c-0.01,0.047-0.01,0.059-0.017,0.087c-0.586,0.106-1.223,0.068-1.855-0.054
	c-0.003,0-0.007,0-0.01,0c-0.433-0.075-0.896-0.253-1.418-0.399c-0.009-0.003-0.018-0.005-0.027-0.007
	c-0.507-0.116-1.006,0.032-1.388,0.316c-0.005,0.003-0.012,0.006-0.017,0.01c-0.008,0.006-0.016,0.011-0.023,0.017
	c-0.312,0.206-0.737,0.552-0.76,1.153c-0.001,0.039,0.002,0.079,0.01,0.118c0.067,0.353,0.285,0.611,0.478,0.779
	c0.193,0.168,0.375,0.28,0.487,0.367c0.009,0.007,0.018,0.013,0.027,0.02c0.946,0.638,1.993,0.918,2.904,1.273c0,0,0.002,0,0.003,0
	c0.631,0.279,1.178,0.714,1.304,1.26c0.157,0.691-0.134,1.485-0.515,2.256c0,0.001,0,0.002,0,0.003
	c-1.025,2.041-2.547,3.816-4.419,5.118c-0.981,0.677-2.088,1.183-3.243,1.496c-0.016,0.004-0.032,0.01-0.047,0.016
	c-0.237,0.09-0.799,0.148-1.153,0.687c-0.025,0.037-0.045,0.078-0.061,0.121c-0.119,0.345,0.017,0.717,0.185,0.92
	c0.16,0.194,0.339,0.308,0.494,0.39c0.008,0.005,0.016,0.01,0.024,0.014c0.972,0.563,2.034,0.806,3.004,1.056
	c0.004,0.001,0.009,0.002,0.014,0.003c0.699,0.159,1.343,0.244,1.868,0.47c0.026,0.044,0.079,0.223,0.202,0.518
	c0.172,0.538,0.25,1.174,0.45,1.839c0.054,0.185,0.215,0.333,0.403,0.373c0.441,0.094,0.684-0.058,0.723-0.061
	c0.018-0.001,0.036-0.003,0.054-0.007c1.624-0.284,3.244-0.537,4.732-0.161c0,0,0.002,0,0.003,0c1.561,0.411,2.918,1.496,4.446,2.43
	c0.003,0.001,0.004,0.005,0.007,0.007v-0.004c1.015,0.645,2.188,1.274,3.542,1.321v0.004c0.004,0,0.009,0,0.013,0
	c1.023,0.058,2.027-0.008,3.008-0.074c0.006,0,0.012,0,0.017,0c0.839-0.084,1.654-0.362,2.366-0.82
	c0.01-0.006,0.021-0.011,0.03-0.018c1.606-0.92,3.035-2.029,4.6-2.725c0.003-0.001,0.006-0.003,0.008-0.004
	c0.508-0.184,1.142-0.174,1.848-0.222c0.007,0,0.014,0,0.021,0c1.296-0.04,2.595,0.029,3.881,0.201c0.045,0.007,0.09,0.007,0.135,0
	c0.169-0.02,0.354-0.132,0.443-0.248c0.09-0.115,0.115-0.209,0.135-0.275c0.037-0.134,0.072-0.197,0.011-0.087
	c0.019-0.034,0.034-0.07,0.046-0.108c0.237-0.783,0.365-1.491,0.746-1.932c0.172-0.168,0.467-0.252,0.801-0.245
	c0.023,0,0.049-0.001,0.073-0.004c1.118-0.133,2.13-0.536,3.088-0.88c0.012-0.005,0.023-0.009,0.034-0.014
	c0.356-0.155,0.887-0.334,1.249-0.844c0.003-0.002,0.006-0.004,0.008-0.007l-0.004-0.004c0.306-0.426,0.164-1.013-0.269-1.279
	l0.007-0.008c-0.014-0.009-0.026-0.014-0.04-0.022c-0.004-0.002-0.007-0.005-0.011-0.007v0.003c-0.519-0.333-1.039-0.38-1.367-0.501
	c-0.007-0.002-0.014-0.004-0.021-0.006c-2.225-0.714-4.148-2.25-5.585-4.12c-0.798-1.042-1.473-2.175-1.919-3.384
	c-0.002-0.005-0.002-0.009-0.003-0.014c-0.175-0.525-0.184-1.099,0.073-1.445c0.004-0.003,0.007-0.007,0.01-0.011
	c0.402-0.577,1.14-0.947,1.927-1.239c0.003-0.001,0.007-0.002,0.01-0.003c0.869-0.303,1.819-0.655,2.604-1.352
	c0.004-0.003,0.006-0.006,0.01-0.01c0.121-0.115,0.268-0.264,0.377-0.487c0.108-0.224,0.16-0.571,0.017-0.874
	c0-0.001,0-0.002,0-0.004c-0.227-0.466-0.622-0.706-0.915-0.88c-0.001,0-0.002,0-0.002,0c-0.492-0.287-1.063-0.306-1.561-0.145
	c-0.001,0-0.002,0-0.002,0c-0.004,0.001-0.008,0.002-0.011,0.004c-0.537,0.163-0.975,0.358-1.381,0.41
	c-0.009,0.002-0.019,0.004-0.027,0.006c-0.578,0.104-1.138,0.128-1.573-0.033c-0.003-0.065-0.006-0.192-0.022-0.35h0.002
	c-0.031-0.958,0.051-1.947,0.064-2.97c0-0.002,0-0.004,0-0.007c0.045-1.555,0.107-3.157-0.121-4.769
	c-0.001-0.008-0.002-0.016-0.003-0.023c-0.497-2.719-2.225-5.062-4.415-6.62c-1.593-1.13-3.484-1.761-5.404-1.939
	c-0.002,0-0.003,0-0.003,0C30.094,8.771,29.451,8.748,28.809,8.756L28.809,8.756z"/>
</svg>
