<?xml version="1.0" encoding="utf-8"?>
<!-- Generator: Adobe Illustrator 16.0.0, SVG Export Plug-In . SVG Version: 6.00 Build 0)  -->
<!DOCTYPE svg PUBLIC "-//W3C//DTD SVG 1.1//EN" "http://www.w3.org/Graphics/SVG/1.1/DTD/svg11.dtd">
<svg version="1.1" id="Calque_1" xmlns="http://www.w3.org/2000/svg" xmlns:xlink="http://www.w3.org/1999/xlink" x="0px" y="0px"
	 width="48px" height="48px" viewBox="0 0 48 48" enable-background="new 0 0 48 48" xml:space="preserve">
<path fill="none" d="M0,0h48v48H0V0z"/>
<g sketch:type="MSPage">
	<path sketch:type="MSShapeGroup" d="M22.821,20.462h-5.898v-3.83c0-0.491-0.393-0.889-0.885-0.889
		c-0.488,0-0.884,0.399-0.884,0.889v3.83l0,0h-4.132c-1.301,0-2.355,1.056-2.355,2.358v2.149l0,0
		c0.185-0.056,0.366-0.085,0.543-0.085c0.316,0,0.654,0.083,1.017,0.23c0.28,0.114,0.57,0.266,0.865,0.445
		c0.228,0.138,0.446,0.285,0.648,0.433c0.122,0.09,0.213,0.159,0.247,0.187c0.044,0.032,0.128,0.093,0.244,0.172
		c0.192,0.131,0.397,0.263,0.603,0.385c0.168,0.1,0.33,0.188,0.481,0.263c0.324,0.16,0.583,0.245,0.714,0.245
		c0.159,0,0.451-0.088,0.813-0.253c0.166-0.076,0.342-0.165,0.526-0.266c0.225-0.122,0.448-0.254,0.658-0.386
		c0.125-0.08,0.217-0.14,0.24-0.154c0.055-0.042,0.15-0.111,0.277-0.2c0.211-0.146,0.437-0.293,0.671-0.431
		c0.261-0.152,0.517-0.285,0.763-0.393c0.411-0.177,0.784-0.277,1.125-0.277c0.35,0,0.757,0.162,1.275,0.448
		c0.126,0.069,0.256,0.146,0.39,0.229c0.219,0.136,0.438,0.279,0.646,0.424c0.126,0.086,0.221,0.154,0.256,0.181
		c0.049,0.033,0.141,0.094,0.267,0.173c0.211,0.132,0.434,0.265,0.66,0.387c0.185,0.101,0.362,0.188,0.528,0.265
		c0.364,0.166,0.658,0.254,0.819,0.254c0.079,0,0.285-0.079,0.545-0.229c0.128-0.073,0.265-0.16,0.406-0.258
		c0.176-0.121,0.35-0.251,0.515-0.382c0.099-0.077,0.17-0.137,0.245-0.198c0.055-0.041,0.152-0.11,0.283-0.197
		c0.215-0.145,0.443-0.29,0.676-0.426c0.195-0.113,0.385-0.216,0.568-0.305c0.479-0.232,0.887-0.365,1.246-0.365
		c0.37,0,0.801,0.13,1.307,0.358c0.196,0.088,0.398,0.189,0.606,0.303c0.249,0.136,0.495,0.279,0.726,0.424
		c0.139,0.087,0.243,0.155,0.314,0.203c0.046,0.032,0.134,0.092,0.254,0.17c0.203,0.13,0.42,0.261,0.643,0.383
		c0.243,0.132,0.476,0.244,0.691,0.331c0.306,0.123,0.563,0.188,0.737,0.188c0.452,0,1.211-0.382,2.326-1.089
		c0.079-0.05,0.167-0.11,0.274-0.19c0.066-0.05,0.326-0.247,0.313-0.236c0.771-0.583,1.298-0.844,2.021-0.844
		c0.225,0,0.455,0.048,0.694,0.136v-2.2c0-1.303-1.056-2.358-2.355-2.358h-5.312l0,0v-3.83c0-0.491-0.393-0.889-0.884-0.889
		c-0.489,0-0.885,0.399-0.885,0.889v3.83H24.59v-6.784c0-0.488-0.393-0.883-0.884-0.883c-0.488,0-0.885,0.398-0.885,0.883V20.462z
		 M39.334,34.026v-1.769l0,0H8.666v-0.59h30.668v-5.345c-0.062-0.036-0.121-0.069-0.181-0.098c-0.216-0.107-0.396-0.161-0.514-0.161
		c-0.393,0-0.729,0.167-1.31,0.605c0.019-0.014-0.247,0.188-0.322,0.242c-0.128,0.096-0.236,0.172-0.344,0.24
		c-1.354,0.856-2.178,1.271-2.958,1.271c-0.352,0-0.744-0.099-1.178-0.272c-0.263-0.105-0.536-0.237-0.815-0.39
		c-0.25-0.137-0.492-0.282-0.718-0.428c-0.137-0.088-0.238-0.157-0.286-0.191c-0.05-0.033-0.142-0.094-0.269-0.173
		c-0.211-0.132-0.435-0.265-0.661-0.387c-0.185-0.101-0.362-0.189-0.53-0.265c-0.364-0.166-0.659-0.254-0.821-0.254
		c-0.136,0-0.4,0.086-0.731,0.246c-0.153,0.076-0.317,0.164-0.487,0.264c-0.21,0.121-0.418,0.253-0.613,0.386
		c-0.116,0.078-0.202,0.138-0.211,0.142c-0.047,0.041-0.132,0.11-0.242,0.199c-0.184,0.146-0.379,0.291-0.579,0.429
		c-0.167,0.115-0.331,0.221-0.489,0.31c-0.425,0.244-0.791,0.385-1.131,0.385c-0.37,0-0.8-0.131-1.305-0.358
		c-0.195-0.089-0.397-0.19-0.605-0.303c-0.25-0.136-0.494-0.28-0.725-0.425c-0.138-0.087-0.243-0.155-0.321-0.209
		c-0.046-0.034-0.131-0.095-0.246-0.175c-0.192-0.132-0.393-0.265-0.593-0.388c-0.119-0.072-0.234-0.141-0.344-0.201
		c-0.346-0.192-0.621-0.301-0.704-0.301c-0.151,0-0.38,0.061-0.656,0.181c-0.198,0.086-0.412,0.197-0.635,0.328
		c-0.206,0.121-0.407,0.25-0.595,0.381c-0.111,0.078-0.192,0.137-0.26,0.188c-0.06,0.04-0.163,0.108-0.302,0.196
		c-0.229,0.145-0.473,0.288-0.721,0.424c-0.208,0.113-0.41,0.215-0.604,0.303c-0.503,0.229-0.932,0.359-1.301,0.359
		c-0.357,0-0.762-0.134-1.236-0.367c-0.181-0.089-0.368-0.191-0.561-0.306c-0.229-0.135-0.455-0.28-0.667-0.425
		c-0.128-0.088-0.225-0.157-0.3-0.213c-0.039-0.031-0.114-0.091-0.219-0.167c-0.177-0.129-0.369-0.258-0.566-0.378
		c-0.246-0.149-0.482-0.272-0.698-0.36c-0.233-0.096-0.431-0.144-0.571-0.144c-0.111,0-0.271,0.045-0.464,0.137
		c-0.026,0.013-0.052,0.026-0.079,0.04l0,0v15.452h30.668v-6.487H8.666v-1.18H39.334L39.334,34.026z M15.503,15.522
		c0,0-0.292-3.171,0.535-3.171c0.745,0,0.745,2.948,0.745,2.948s0.73-1.606,0.73-2.8c0-1.791-1.475-3.243-1.475-3.243
		s-1.474,1.452-1.474,3.243C14.564,13.875,15.503,15.522,15.503,15.522z M23.17,12.574c0,0-0.292-3.172,0.535-3.172
		c0.745,0,0.745,2.948,0.745,2.948s0.729-1.606,0.729-2.8c0-1.792-1.474-3.244-1.474-3.244S22.23,7.759,22.23,9.551
		C22.23,10.926,23.17,12.574,23.17,12.574z M30.247,15.522c0,0-0.291-3.171,0.536-3.171c0.744,0,0.744,2.948,0.744,2.948
		s0.729-1.606,0.729-2.8c0-1.791-1.474-3.243-1.474-3.243s-1.476,1.452-1.476,3.243C29.308,13.875,30.247,15.522,30.247,15.522z"/>
</g>
</svg>
