<?xml version="1.0" encoding="utf-8"?>
<!-- Generator: Adobe Illustrator 18.1.1, SVG Export Plug-In . SVG Version: 6.00 Build 0)  -->
<svg version="1.1" id="Calque_1" xmlns="http://www.w3.org/2000/svg" xmlns:xlink="http://www.w3.org/1999/xlink" x="0px" y="0px"
	 viewBox="-50 52 48 48" enable-background="new -50 52 48 48" xml:space="preserve">
<path d="M-25.4,74.5c-0.1,0-0.1,0.1-0.2,0.1L-25.4,74.5C-25.4,74.6-25.4,74.5-25.4,74.5z"/>
<path d="M-24.7,86.5L-24.7,86.5L-24.7,86.5c-0.4,0.5-1,0.6-1.5,0.2l-0.2-0.2l-0.2-0.2c0,0,0-0.1,0.1-0.1l0.7-2c0,0,0.1,0.1,0.1,0.1
	c0.1,0.1,0.1,0.1,0.2,0.2c0,0,0.1,0.1,0.1,0.1c0,0,0.1,0.1,0.1,0.1c0,0,0.1,0,0.1,0.1c0.1,0.1,0.1,0.1,0.2,0.1
	c0.1,0.1,0.2,0.2,0.2,0.2C-24.4,85.3-24.4,86-24.7,86.5z"/>
<path d="M-16.2,82.8L-16.2,82.8c-0.4,0.5-1,0.6-1.5,0.2c0,0-0.1-0.1-0.2-0.1c-0.3-0.2-0.9-0.7-1.7-1.3c-0.1-0.1-0.2-0.2-0.3-0.2
	c-0.3-0.2-0.6-0.5-0.9-0.7c0,0-0.1-0.1-0.1-0.1c-0.2-0.1-0.3-0.3-0.5-0.4c-1.7-1.3-3.4-2.7-3.5-2.8c-0.3-0.3-0.6,0.2-0.3,0.4
	c0.2,0.1,1.9,1.5,3.4,2.7c0,0,0.1,0.1,0.1,0.1c0.1,0.1,0.2,0.1,0.3,0.2c0.1,0.1,0.2,0.2,0.3,0.3c0.1,0,0.1,0.1,0.2,0.1
	c0.4,0.3,0.8,0.6,1.1,0.8c0.1,0,0.1,0.1,0.2,0.1c0.1,0.1,0.1,0.1,0.2,0.2c0,0,0.1,0,0.1,0.1c0,0,0,0,0,0c0,0,0,0,0,0
	c0.1,0.1,0.2,0.2,0.2,0.2c0.5,0.4,0.5,1,0.2,1.5l0,0l0,0l0,0c-0.4,0.5-1,0.5-1.5,0.2c0,0-0.1,0-0.2-0.1c0,0,0,0-0.1,0c0,0,0,0,0,0
	c0,0-0.1,0-0.1-0.1c0,0,0,0,0,0c0,0,0,0,0,0c0,0-0.1-0.1-0.1-0.1c0,0,0,0,0,0c-0.1-0.1-0.2-0.2-0.4-0.3c0,0-0.1,0-0.1-0.1
	c-0.1-0.1-0.1-0.1-0.2-0.2c-0.1-0.1-0.1-0.1-0.2-0.2c-0.1,0-0.1-0.1-0.2-0.1c-0.4-0.3-0.9-0.7-1.3-1c-1.5-1.2-3-2.4-3.2-2.5
	c-0.3-0.3-0.7,0.2-0.3,0.4c0.2,0.1,1.8,1.4,3.1,2.5c0.1,0.1,0.2,0.2,0.3,0.3c0.1,0.1,0.2,0.2,0.3,0.2c0.1,0.1,0.2,0.1,0.3,0.2
	c0.1,0.1,0.3,0.2,0.4,0.3c0,0,0.1,0.1,0.1,0.1c0,0,0,0,0.1,0.1c0,0,0.1,0.1,0.1,0.1c0.1,0,0.1,0.1,0.2,0.1c0.1,0.1,0.2,0.1,0.2,0.1
	c0.5,0.4,0.5,1,0.2,1.5l0,0l0,0l0,0c-0.4,0.5-1,0.5-1.5,0.2c0,0-0.1,0-0.2-0.1c0,0,0,0,0,0c0,0,0,0,0,0c0,0-0.1-0.1-0.1-0.1
	c-0.2-0.2-0.6-0.5-1-0.8c-0.1-0.1-0.2-0.2-0.3-0.2c-0.2-0.1-0.3-0.3-0.5-0.4c-0.1-0.1-0.2-0.2-0.4-0.3c0-0.3,0-0.5-0.1-0.7
	c-0.2-0.4-0.5-0.6-0.8-0.7c-0.2-0.1-0.3-0.1-0.5-0.1c-0.1,0-0.3,0-0.4,0.1c-0.2-0.2-0.4-0.3-0.5-0.4c0,0,0-0.1-0.1-0.1
	c-0.2-0.4-0.5-0.6-0.8-0.7c-0.2-0.1-0.3-0.1-0.5-0.1c-0.5,0-0.9,0.2-1.2,0.6c-0.1-0.5-0.5-0.9-1-1c-0.2-0.1-0.3-0.1-0.5-0.1
	c-0.5,0-0.9,0.3-1.2,0.6c-0.1-0.5-0.5-0.9-0.9-1c-0.2-0.1-0.3-0.1-0.5-0.1c-0.6,0-1.2,0.4-1.4,1l0,0c-0.1,0-0.2-0.1-0.3-0.1
	l-3.3-1.9c-0.1-0.1-0.2-0.2-0.1-0.4l3.6-6.4c0.1-0.1,0.2-0.2,0.4-0.1l1.7,0.7c0.1,0.1,0.4,0.1,0.5,0l4-1.3c0.1,0,0.4-0.1,0.5,0
	l0.3,0.1c0.1,0,0.2,0.1,0,0.2l-0.4,0.3c0,0,0,0,0,0c-0.9,0.7-2.2,1.6-2.8,2c-0.6,0.4-0.8,1-0.6,1.6c0.2,0.8,1.1,1.3,2,1.3
	c0.3,0,0.6-0.1,0.9-0.2c0.9-0.4,2.1-0.9,3.2-1.3c0,0,0,0,0,0l0.4-0.2c0.3-0.1,0.5-0.2,0.7-0.3l0.2-0.1c0,0,0,0,0,0c0,0,0,0,0,0
	c0.1,0,0.3,0,0.4,0.1l1.2,0.9c0.1,0.1,0.3,0.2,0.4,0.3l3.6,2.8l3.2,2.5l0.2,0.2C-16,81.7-15.9,82.4-16.2,82.8z"/>
<path d="M-24.9,84.3c-0.2-0.1-0.3-0.3-0.5-0.4l0,0C-25.2,84-25.1,84.1-24.9,84.3z"/>
<path d="M-21.7,80.6c0,0-0.1-0.1-0.1-0.1l0,0C-21.8,80.5-21.7,80.6-21.7,80.6z"/>
<path d="M-28.1,71.4c0.1-0.1,0.3-0.2,0.5-0.2l3.9-1.3c0.1,0,0.4,0,0.5,0l5,2.4c0.1,0.1,0.4,0.1,0.5,0l1.7-0.7c0.1-0.1,0.3,0,0.4,0.1
	l3.6,6.4c0.1,0.1,0,0.3-0.1,0.4l-3.3,2.4c-0.1,0.1-0.3,0.1-0.4,0l-8.9-7.1c-0.1-0.1-0.3-0.1-0.5-0.1c0,0-3.1,1.3-4.8,2
	c-1.5,0.6-3-1.1-1.8-1.9C-30.8,73.4-28.1,71.4-28.1,71.4z"/>
<g>
	<g>
		<path d="M-26.9,82.4c0.6,0.2,0.9,0.8,0.7,1.4L-27,86c-0.2,0.6-0.8,0.9-1.4,0.7l0,0c-0.6-0.2-0.9-0.8-0.7-1.4l0.8-2.2
			C-28.1,82.6-27.5,82.3-26.9,82.4L-26.9,82.4z"/>
	</g>
	<g>
		<path d="M-29.2,81.1c0.6,0.2,0.9,0.8,0.7,1.4l-0.8,2.2c-0.2,0.6-0.8,0.9-1.4,0.7l0,0c-0.6-0.2-0.9-0.8-0.7-1.4l0.8-2.2
			C-30.4,81.2-29.8,80.9-29.2,81.1L-29.2,81.1z"/>
	</g>
	<g>
		<path d="M-31.8,80.6c0.6,0.2,0.9,0.8,0.7,1.4l-0.5,1.3c-0.2,0.6-0.8,0.9-1.4,0.7l0,0c-0.6-0.2-0.9-0.8-0.7-1.4l0.5-1.3
			C-33,80.7-32.4,80.4-31.8,80.6L-31.8,80.6z"/>
	</g>
	<g>
		<path d="M-34.5,80.1c0.6,0.2,0.9,0.8,0.7,1.4L-34,82c-0.2,0.6-0.8,0.9-1.4,0.7l0,0c-0.6-0.2-0.9-0.8-0.7-1.4l0.2-0.5
			C-35.7,80.3-35.1,80-34.5,80.1L-34.5,80.1z"/>
	</g>
</g>
<path d="M-5.1,75.2c0.1,0.2,0,0.5-0.2,0.6l-5.1,2.8c-0.2,0.1-0.5,0-0.6-0.2l-3.8-7c-0.1-0.2,0-0.5,0.2-0.6l5.1-2.8
	c0.2-0.1,0.5,0,0.6,0.2L-5.1,75.2z"/>
<path d="M-46.9,75.2c-0.1,0.2,0,0.5,0.2,0.6l5.1,2.8c0.2,0.1,0.5,0,0.6-0.2l3.8-7c0.1-0.2,0-0.5-0.2-0.6l-5.1-2.8
	c-0.2-0.1-0.5,0-0.6,0.2L-46.9,75.2z"/>
</svg>
