<?xml version="1.0" encoding="utf-8"?>
<!-- Generator: Adobe Illustrator 18.1.1, SVG Export Plug-In . SVG Version: 6.00 Build 0)  -->
<svg version="1.1" id="Calque_1" xmlns="http://www.w3.org/2000/svg" xmlns:xlink="http://www.w3.org/1999/xlink" x="0px" y="0px"
	 viewBox="-50 52 48 48" enable-background="new -50 52 48 48" xml:space="preserve">
<path stroke="#FFFFFF" stroke-width="3.798" d="M-19.6,78.5"/>
<path d="M-20.9,75.5c-2.6-1.8-6-5.3-5.3-8.2c0.2-0.9-0.4-1.5-1.2-1.4c-1,0.1-1.6,1.3-1.7,2.6c0,1.5,0.2,2.9,0.6,4.2
	c0,0.4,0,0.7-0.4,0.8c-0.6,0.1-1.3,0.1-1.9,0.1c-0.3,0-0.6,0-0.9,0c0,0,0,0,0,0h0c-0.5,0-1,0.1-1.4,0.1c-0.8,0.1-1.6,0.7-1.7,1.5
	c-0.1,0.8,0.5,1.4,1.4,1.5c0.1,0,0.1,0,0.2,0c-0.2,0-0.4,0-0.6,0.1c-0.8,0.1-1.6,0.7-1.7,1.5s0.5,1.5,1.4,1.5c0.3,0,0.6,0,1,0.1
	c0,0-0.1,0-0.1,0c-0.8,0.1-1.6,0.7-1.7,1.6c-0.1,0.8,0.6,1.4,1.4,1.5c0.3,0,0.6,0.1,1,0.1c-0.6,0.2-1,0.6-1,1.4c0,0.8,1,1.5,1.8,1.6
	c0.3,0,0.6,0.1,0.9,0.1l0,0c0,0,0.1,0,0.1,0c0.3,0,0.5,0,0.7,0c3.9,0.1,7.3-0.7,9.3-2.4L-20.9,75.5L-20.9,75.5z"/>
<rect x="-19.9" y="74.8" width="3.5" height="9.7"/>
</svg>
