<?xml version="1.0" encoding="utf-8"?>
<!-- Generator: Adobe Illustrator 16.0.0, SVG Export Plug-In . SVG Version: 6.00 Build 0)  -->
<!DOCTYPE svg PUBLIC "-//W3C//DTD SVG 1.1//EN" "http://www.w3.org/Graphics/SVG/1.1/DTD/svg11.dtd">
<svg version="1.1" id="Calque_1" xmlns="http://www.w3.org/2000/svg" xmlns:xlink="http://www.w3.org/1999/xlink" x="0px" y="0px"
	 width="139.932px" height="140px" viewBox="0 0 139.932 140" enable-background="new 0 0 139.932 140" xml:space="preserve">
<path fill="#FFFFFF" d="M69.966,0c-38.66,0-70,31.34-70,70c0,38.66,31.34,70,70,70s70-31.34,70-70
	C139.966,31.339,108.626,0,69.966,0z M118.107,95.924c-0.842,1.975-5.104,3.611-12.32,4.727c-0.676,0.105-0.961,1.199-1.354,2.99
	c-0.16,0.74-0.324,1.466-0.549,2.229c-0.211,0.717-0.678,1.067-1.428,1.067h-0.113c-0.488,0-1.18-0.089-2.053-0.259
	c-1.525-0.297-3.234-0.574-5.41-0.574c-1.27,0-2.582,0.111-3.902,0.33c-2.686,0.447-4.979,2.067-7.406,3.783
	c-3.4,2.404-7.246,5.124-12.998,5.124c-0.273,0-0.533-0.011-0.732-0.02c-0.158,0.013-0.32,0.02-0.484,0.02
	c-5.75,0-9.598-2.72-12.99-5.119c-2.432-1.719-4.727-3.341-7.412-3.788c-1.32-0.219-2.635-0.33-3.902-0.33
	c-2.285,0-4.092,0.355-5.41,0.612c-0.812,0.159-1.512,0.295-2.053,0.295c-0.566,0-1.254-0.126-1.541-1.104
	c-0.229-0.773-0.393-1.521-0.549-2.242c-0.393-1.801-0.68-2.9-1.354-3.005c-7.213-1.112-11.475-2.753-12.324-4.737
	c-0.088-0.21-0.139-0.419-0.15-0.627c-0.033-0.592,0.385-1.111,0.969-1.208c5.729-0.942,10.822-3.972,15.141-9.003
	c3.344-3.895,4.988-7.615,5.164-8.026c0.008-0.019,0.016-0.038,0.023-0.056c0.834-1.689,1-3.148,0.496-4.336
	c-0.93-2.192-4.008-3.168-6.045-3.814c-0.506-0.16-0.984-0.312-1.367-0.464c-1.807-0.714-4.775-2.22-4.381-4.3
	c0.289-1.516,2.295-2.572,3.916-2.572c0.451,0,0.85,0.079,1.186,0.236c1.832,0.858,3.479,1.293,4.896,1.293
	c1.762,0,2.613-0.67,2.82-0.861c-0.053-0.94-0.113-1.934-0.174-2.875c0-0.001,0-0.012,0-0.012
	c-0.414-6.582-0.93-14.771,1.164-19.469c6.27-14.059,19.568-15.152,23.494-15.152c0.104,0,1.711-0.016,1.711-0.016
	c0.072-0.002,0.15-0.002,0.232-0.002c3.936,0,17.26,1.094,23.535,15.162c2.094,4.7,1.578,12.897,1.162,19.485l-0.018,0.316
	c-0.057,0.895-0.111,1.74-0.154,2.562c0.193,0.179,0.973,0.794,2.557,0.856c1.352-0.053,2.904-0.484,4.613-1.286
	c0.529-0.247,1.113-0.3,1.512-0.3c0.6,0,1.211,0.117,1.721,0.33l0.027,0.01c1.451,0.516,2.4,1.545,2.422,2.625
	c0.02,1.008-0.73,2.515-4.416,3.97c-0.377,0.149-0.857,0.302-1.365,0.464c-2.039,0.646-5.115,1.622-6.045,3.812
	c-0.504,1.189-0.338,2.648,0.494,4.336c0.01,0.019,0.018,0.037,0.025,0.057c0.256,0.601,6.461,14.748,20.305,17.028
	c0.582,0.097,1.002,0.616,0.969,1.207C118.248,95.505,118.197,95.717,118.107,95.924z"/>
</svg>
