<?xml version="1.0" ?><!DOCTYPE svg  PUBLIC '-//W3C//DTD SVG 1.1//EN'  'http://www.w3.org/Graphics/SVG/1.1/DTD/svg11.dtd'><svg height="128px" id="Layer_1" style="enable-background:new 0 0 128 128;" version="1.1" viewBox="0 0 128 128" width="128px" xml:space="preserve" xmlns="http://www.w3.org/2000/svg" xmlns:xlink="http://www.w3.org/1999/xlink"><style type="text/css">
<![CDATA[
	.st0{fill-rule:evenodd;clip-rule:evenodd;}
]]>
</style><path d="M80.879,100.254c-3.066,0-5.779-0.716-8.16-2.146c-1.807-1.062-3.026-2.475-3.688-4.239c-0.659-1.77-0.983-5.77-0.983-12  V54.296h25.505V37.415H68.047V10.242H52.752c-0.688,5.55-1.942,10.117-3.767,13.706c-1.818,3.593-4.232,6.669-7.253,9.236  c-2.996,2.558-6.622,4.527-10.849,5.893v15.22h11.888v37.713c0,4.915,0.512,8.665,1.54,11.244c1.032,2.592,2.882,5.037,5.548,7.336  c2.668,2.292,5.888,4.062,9.667,5.304c3.779,1.247,8.12,1.864,13.031,1.864c4.33,0,8.36-0.435,12.079-1.305  c3.726-0.873,7.888-2.39,12.479-4.559V94.939C91.733,98.474,86.321,100.254,80.879,100.254z"/></svg>