<?xml version="1.0" ?><!DOCTYPE svg  PUBLIC '-//W3C//DTD SVG 1.1//EN'  'http://www.w3.org/Graphics/SVG/1.1/DTD/svg11.dtd'><svg enable-background="new 0 0 30 30" height="30px" id="Vine" version="1.1" viewBox="0 0 30 30" width="30px" xml:space="preserve" xmlns="http://www.w3.org/2000/svg" xmlns:xlink="http://www.w3.org/1999/xlink"><path d="M11,28c1.119,0.864,3,2,4,2c1.958,0,3.146-0.863,5-3c3.276-3.777,3.923-5.636,5-8c2,0,4-1,4-1v-3  c0,0-3.435-0.009-4,0c-4.307,0.061-9-5-6-9c0,0,1-1,2-1s1.706,0.524,2,1c0.657,1.063,1,3,0,5c1,2,4,2,5,1s2-6.458-1-10  c-1.117-1.081-2.98-2-6-2c-2,0-2.821,0.293-4,1c-3.232,1.94-3.254,5.94-3,8c0.254,2.061,1.69,6.575,6,9c0.38,0.424-4.717,8.278-5,8  C8,20,6,5,6,5H1C1,5,2.921,21.767,11,28z" id="V"/></svg>