<?xml version="1.0" encoding="utf-8"?>
<!-- Generator: Adobe Illustrator 16.0.0, SVG Export Plug-In . SVG Version: 6.00 Build 0)  -->
<!DOCTYPE svg PUBLIC "-//W3C//DTD SVG 1.1//EN" "http://www.w3.org/Graphics/SVG/1.1/DTD/svg11.dtd">
<svg version="1.1" id="Calque_1" xmlns="http://www.w3.org/2000/svg" xmlns:xlink="http://www.w3.org/1999/xlink" x="0px" y="0px"
	 width="139.932px" height="140px" viewBox="0 0 139.932 140" enable-background="new 0 0 139.932 140" xml:space="preserve">
<path fill="#FFFFFF" d="M69.965,0.006C31.309,0.006-0.028,31.343-0.028,70c0,29.015,17.654,53.904,42.806,64.517
	c-0.279-5.127-0.207-11.595,1.164-17.395c1.346-5.698,9.025-38.232,9.025-38.232s-2.238-4.479-2.238-11.102
	c0-10.398,6.027-18.16,13.531-18.16c6.379,0,9.463,4.79,9.463,10.533c0,6.416-4.086,16.008-6.195,24.896
	c-1.76,7.444,3.734,13.515,11.074,13.515c13.291,0,22.244-17.073,22.244-37.303c0-15.375-10.354-26.888-29.193-26.888
	c-21.277,0-34.543,15.873-34.543,33.604c0,6.111,1.805,10.426,4.631,13.759c1.297,1.533,1.479,2.151,1.008,3.91
	c-0.342,1.293-1.109,4.399-1.434,5.631c-0.465,1.779-1.904,2.413-3.512,1.756c-9.799-4.001-14.367-14.736-14.367-26.804
	c0-19.93,16.809-43.829,50.143-43.829c26.791,0,44.418,19.382,44.418,40.193c0,27.523-15.303,48.084-37.857,48.084
	c-7.576,0-14.701-4.096-17.137-8.744c0,0-4.076,16.164-4.938,19.285c-1.604,5.821-4.852,11.644-7.664,15.977
	c6.211,1.806,12.771,2.792,19.564,2.792c38.656,0,69.994-31.338,69.994-69.994C139.959,31.343,108.622,0.006,69.965,0.006z"/>
</svg>
