<?xml version="1.0" encoding="utf-8"?>
<!-- Generator: Adobe Illustrator 18.1.1, SVG Export Plug-In . SVG Version: 6.00 Build 0)  -->
<svg version="1.1" id="Calque_1" xmlns="http://www.w3.org/2000/svg" xmlns:xlink="http://www.w3.org/1999/xlink" x="0px" y="0px"
	 viewBox="-50 52 48 48" enable-background="new -50 52 48 48" xml:space="preserve">
<path fill="none" d="M-50,52h48v48h-48V52z"/>
<path d="M-23,92.9c-2.7,0-3.3-1.2-4.6-4c-1.5-3.2-6.6-14.8-10.4-13.4c-1,0.4-0.8,1.7-0.8,3.1c0,2.3,0.2,14,0,14.1
	c0,0-1.5,0.1-1.6-0.1c-0.5-8.8-0.9-14.2-3.9-22.8c-0.7-3.3,1.8-6.2,3.7-8.6c0.6-0.7,1.4,0.5,2.2,1.3c2.7,2.7,8.4,8.6,10.4,11.3
	c1.8,2.3,4.4,7,7.3,7c3.1,0,3.3-0.3,4.6,0.1c1.7,0.4,5,1.1,6.5,1.8c3.1,1.4,1.7,4.3,1.1,6C-9.4,91.2-20.8,92.8-23,92.9z"/>
</svg>
