<?xml version="1.0" encoding="utf-8"?>
<!-- Generator: Adobe Illustrator 16.0.0, SVG Export Plug-In . SVG Version: 6.00 Build 0)  -->
<!DOCTYPE svg PUBLIC "-//W3C//DTD SVG 1.1//EN" "http://www.w3.org/Graphics/SVG/1.1/DTD/svg11.dtd">
<svg version="1.1" id="Calque_1" xmlns="http://www.w3.org/2000/svg" xmlns:xlink="http://www.w3.org/1999/xlink" x="0px" y="0px"
	 width="139.932px" height="140px" viewBox="0 0 139.932 140" enable-background="new 0 0 139.932 140" xml:space="preserve">
<g>
	<path fill="#FFFFFF" d="M102.875,33.423c-3.096-0.024-6.192-0.025-9.288,0.001c-1.618,0.014-2.673,1.052-2.714,2.663
		c-0.041,1.606-0.009,3.214-0.009,4.822c0.001,0,0.001,0,0.003,0c0,1.625-0.027,3.25,0.007,4.873
		c0.032,1.579,1.155,2.633,2.743,2.635c3.071,0.004,6.143,0.004,9.213,0c1.639-0.002,2.785-1.129,2.791-2.769
		c0.011-3.147,0.012-6.295,0-9.442C105.614,34.559,104.523,33.436,102.875,33.423z"/>
	<path fill="#FFFFFF" d="M69.932,0c-38.659,0-70,31.34-70,70c0,38.66,31.341,70,70,70s70-31.34,70-70
		C139.932,31.339,108.591,0,69.932,0z M113.554,70.449c-0.006,8.841,0.01,17.683-0.022,26.523
		c-0.016,4.342-1.593,8.102-4.513,11.289c-2.573,2.809-5.75,4.589-9.502,5.283c-0.948,0.176-1.926,0.273-2.891,0.273
		c-17.732,0.017-35.467,0.055-53.2-0.008c-8.01-0.029-14.653-5.341-16.57-12.975c-0.382-1.518-0.536-3.062-0.534-4.625
		c0.006-8.246,0.006-16.492,0-24.737c-0.002-4.221-0.02-8.442-0.029-12.662c0-0.187,0.012-0.375,0.031-0.56
		c0.055-0.526,0.286-0.765,0.82-0.79c0.561-0.026,1.122-0.019,1.684-0.018c7.514,0.004,15.027,0.011,22.541,0.018
		c0.1,0,0.2,0,0.355,0c-3.389,5.046-4.826,10.495-3.833,16.496c0.868,5.24,3.235,9.662,7.265,13.162
		c8.062,7.006,19.629,7.471,28.098,1.088c4.809-3.623,7.699-8.449,8.637-14.388c0.938-5.938-0.499-11.363-3.865-16.358
		c0.137,0,0.227,0,0.315,0c7.241-0.003,14.483-0.007,21.726-0.011c0.799,0,1.598-0.006,2.398-0.006c0.153,0,0.307,0.003,0.459,0.022
		c0.371,0.044,0.582,0.23,0.609,0.604c0.035,0.5,0.039,1.002,0.039,1.504C113.569,63.199,113.557,66.824,113.554,70.449z
		 M52.701,70.381c0.001-9.462,7.768-17.173,17.291-17.168c9.496,0.005,17.188,7.723,17.174,17.231
		c-0.016,9.539-7.684,17.157-17.268,17.152C60.396,87.59,52.699,79.886,52.701,70.381z M113.566,54.176
		c-0.001,0.487-0.135,0.615-0.624,0.624c-0.103,0.001-0.204,0.001-0.306,0.001c-8.672,0.001-17.342-0.002-26.013,0.012
		c-0.579,0.001-1.024-0.167-1.438-0.563c-1.141-1.092-2.393-2.046-3.744-2.86c-4.824-2.902-10.012-3.917-15.558-2.9
		c-4.318,0.792-8.058,2.769-11.272,5.745c-0.428,0.395-0.886,0.575-1.469,0.574c-8.721-0.011-17.443-0.008-26.164-0.009
		c-0.532,0-0.66-0.125-0.66-0.664c0.002-0.783,0.018-1.566,0.014-2.349c-0.02-3.3-0.159-6.601,0.102-9.899
		c0.159-2.001,0.607-3.926,1.457-5.75c1.283-2.756,3.258-4.937,5.645-6.773c0.035-0.027,0.084-0.039,0.133-0.061
		c0.006,0.046,0.011,0.071,0.01,0.096c-0.004,5.208-0.008,10.415-0.012,15.622c-0.001,0.723-0.019,1.446,0.014,2.168
		c0.022,0.486,0.229,0.693,0.707,0.697c0.652,0.004,1.309-0.031,1.959-0.098c0.434-0.044,0.646-0.304,0.705-0.751
		c0.036-0.278,0.055-0.56,0.056-0.84c0.005-5.888,0.008-11.776,0.01-17.665c0-0.127-0.003-0.256-0.021-0.381
		c-0.079-0.59-0.045-0.662,0.482-0.911c0.525-0.248,1.061-0.461,1.648-0.504c0.422-0.031,0.529,0.08,0.47,0.493
		c-0.022,0.151-0.036,0.304-0.036,0.457c0,5.327,0.004,10.653,0.007,15.979c0.001,1.166-0.009,2.332-0.005,3.497
		c0.001,0.499,0.189,0.716,0.688,0.726c0.628,0.014,1.26,0.002,1.885-0.047c0.58-0.045,0.825-0.302,0.906-0.887
		c0.045-0.327,0.06-0.661,0.061-0.992c0.012-3.122,0.024-6.245,0.02-9.368c-0.004-3.097-0.027-6.194-0.042-9.291
		c-0.005-0.832,0.074-0.942,0.823-1.147c0.34,0,0.68,0,1.021,0c0.479,0.123,0.626,0.471,0.626,0.92
		c-0.001,0.136,0.002,0.272,0.002,0.408c-0.008,2.731-0.018,5.461-0.023,8.192c-0.006,3.003-0.008,6.006-0.012,9.008
		c0,0.825-0.012,1.65,0.014,2.475c0.016,0.496,0.221,0.72,0.707,0.726c0.678,0.008,1.358-0.033,2.035-0.094
		c0.379-0.035,0.634-0.281,0.699-0.673c0.042-0.25,0.079-0.505,0.082-0.759c0.012-0.952,0.012-1.905,0.012-2.857
		c-0.004-5.445-0.009-10.889-0.011-16.333c0-0.571-0.001-0.853,0.669-1.012c13.206,0,26.414,0,39.62,0
		c0.093,0.01,0.184,0.03,0.275,0.03c2.356,0.005,4.714,0.014,7.071,0.01c1.195-0.001,2.377,0.121,3.539,0.399
		c3.661,0.879,6.688,2.8,9.135,5.636c1.955,2.266,3.251,4.865,3.787,7.823c0.287,1.581,0.32,3.183,0.331,4.78
		C113.601,47.947,113.575,51.062,113.566,54.176z"/>
	<path fill="#FFFFFF" d="M70.36,83.104c6.732-0.182,12.378-5.872,12.309-12.494c0.038-7.047-5.438-12.975-12.847-12.873
		c-7.021,0.098-12.697,5.945-12.484,12.902C57.554,77.666,63.218,83.297,70.36,83.104z"/>
</g>
</svg>
