<?xml version="1.0" encoding="utf-8"?>
<!-- Generator: Adobe Illustrator 18.1.1, SVG Export Plug-In . SVG Version: 6.00 Build 0)  -->
<svg version="1.1" id="Calque_1" xmlns="http://www.w3.org/2000/svg" xmlns:xlink="http://www.w3.org/1999/xlink" x="0px" y="0px"
	 viewBox="-50 52 48 48" enable-background="new -50 52 48 48" xml:space="preserve">
<g>
	<path d="M-26.2,72.8c-3.4,0-6.2-0.7-6.2-1.5v1.9c0,0.8,2.8,1.5,6.2,1.5c3.4,0,6.2-0.7,6.2-1.5v-1.9C-20,72.2-22.8,72.8-26.2,72.8z"
		/>
	<path d="M-26.2,76.5c-3.4,0-6.2-0.7-6.2-1.5v1.9c0,0.8,2.8,1.5,6.2,1.5c3.4,0,6.2-0.7,6.2-1.5v-1.9C-20,75.9-22.8,76.5-26.2,76.5z"
		/>
	<path d="M-26.2,80.2c-3.4,0-6.2-0.7-6.2-1.5v1.9c0,0.8,2.8,1.5,6.2,1.5c3.4,0,6.2-0.7,6.2-1.5v-1.9C-20,79.6-22.8,80.2-26.2,80.2z"
		/>
	<path d="M-26.2,83.9c-3.4,0-6.2-0.7-6.2-1.5v1.9c0,0.8,2.8,1.5,6.2,1.5c3.4,0,6.2-0.7,6.2-1.5v-1.9C-20,83.3-22.8,83.9-26.2,83.9z"
		/>
	<path d="M-26.2,66.2c-3.4,0-6.2,0.7-6.2,1.5v1.9c0,0.8,2.8,1.5,6.2,1.5c3.4,0,6.2-0.7,6.2-1.5v-1.9C-20,66.9-22.8,66.2-26.2,66.2z"
		/>
	<path d="M-12.5,77.4c-2.9,0-5.3-0.6-5.3-1.2v1.6c0,0.7,2.4,1.2,5.3,1.2s5.3-0.6,5.3-1.2v-1.6C-7.2,76.8-9.5,77.4-12.5,77.4z"/>
	<path d="M-12.5,80.5c-2.9,0-5.3-0.6-5.3-1.2v1.6c0,0.7,2.4,1.2,5.3,1.2s5.3-0.6,5.3-1.2v-1.6C-7.2,80-9.5,80.5-12.5,80.5z"/>
	<path d="M-12.5,71.7c-2.9,0-5.3,0.6-5.3,1.2v1.6c0,0.7,2.4,1.2,5.3,1.2s5.3-0.6,5.3-1.2V73C-7.2,72.3-9.5,71.7-12.5,71.7z"/>
	<path d="M-39.5,79.9c-2.9,0-5.3-0.6-5.3-1.2v1.6c0,0.7,2.4,1.2,5.3,1.2s5.3-0.6,5.3-1.2v-1.6C-34.2,79.4-36.6,79.9-39.5,79.9z"/>
	<path d="M-39.5,74.3c-2.9,0-5.3,0.6-5.3,1.2v1.6c0,0.7,2.4,1.2,5.3,1.2s5.3-0.6,5.3-1.2v-1.6C-34.2,74.8-36.6,74.3-39.5,74.3z"/>
</g>
</svg>
