<?xml version="1.0" encoding="utf-8"?>
<!-- Generator: Adobe Illustrator 18.1.1, SVG Export Plug-In . SVG Version: 6.00 Build 0)  -->
<svg version="1.1" id="Calque_1" xmlns="http://www.w3.org/2000/svg" xmlns:xlink="http://www.w3.org/1999/xlink" x="0px" y="0px"
	 viewBox="-50 52 48 48" enable-background="new -50 52 48 48" xml:space="preserve">
<path d="M-17.8,89.5h-0.5V84h0c0-0.3-0.1-0.7-0.4-1l-6.2-6.9c0,0-0.1-0.1-0.1-0.1c0,0,0.1-0.1,0.1-0.1l6.2-6.9
	c0.3-0.3,0.4-0.7,0.4-1h0v-5.5h0.5c0.5,0,0.9-0.4,0.9-0.9s-0.4-0.9-0.9-0.9h-16.3c-0.5,0-0.9,0.4-0.9,0.9s0.4,0.9,0.9,0.9h0.5V68
	c0,0.4,0.1,0.7,0.4,1l6.2,6.9c0,0,0.1,0.1,0.1,0.1c0,0-0.1,0.1-0.1,0.1l-6.2,6.9c-0.3,0.3-0.4,0.7-0.4,1v5.5h-0.5
	c-0.5,0-0.9,0.4-0.9,0.9c0,0.5,0.4,0.9,0.9,0.9h16.3c0.5,0,0.9-0.4,0.9-0.9C-17,89.9-17.4,89.5-17.8,89.5z M-31.2,68.7
	c-0.2-0.2-0.3-0.5-0.3-0.7V64h11v4h0c0,0.3-0.1,0.5-0.3,0.7l-5.2,5L-31.2,68.7z M-20.5,88.3h-11v-4h0c0-0.3,0.1-0.6,0.3-0.8l5.2-5
	l5.2,5c0.2,0.2,0.3,0.5,0.3,0.7V88.3z"/>
</svg>
