<?xml version="1.0" encoding="utf-8"?>
<!-- Generator: Adobe Illustrator 16.0.0, SVG Export Plug-In . SVG Version: 6.00 Build 0)  -->
<!DOCTYPE svg PUBLIC "-//W3C//DTD SVG 1.1//EN" "http://www.w3.org/Graphics/SVG/1.1/DTD/svg11.dtd">
<svg version="1.1" id="Calque_1" xmlns="http://www.w3.org/2000/svg" xmlns:xlink="http://www.w3.org/1999/xlink" x="0px" y="0px"
	 width="48px" height="48px" viewBox="0 0 48 48" enable-background="new 0 0 48 48" xml:space="preserve">
<g>
	<path d="M11.903,17.707c2.508-2.999,5.25-5.173,8.226-6.526l0.986,2.076c-3.667,2.12-6.227,4.604-7.681,7.453
		c-0.727,1.425-1.089,2.728-1.089,3.909c0,0.382,0.104,0.704,0.311,0.963c0.208,0.26,0.571,0.39,1.09,0.39
		c2.249-0.241,3.459-0.362,3.633-0.362c1.28,0,2.551,0.458,3.814,1.375c1.263,0.917,1.895,2.275,1.895,4.073
		c0,1.419-0.493,2.794-1.479,4.126s-2.638,1.998-4.956,1.998c-2.491,0-4.533-0.962-6.124-2.886c-1.592-1.924-2.388-4.1-2.388-6.526
		C8.141,24.06,9.394,20.706,11.903,17.707z"/>
	<path d="M29.459,17.707c2.508-2.999,5.25-5.173,8.226-6.526l0.986,2.076c-3.668,2.12-6.228,4.604-7.681,7.453
		c-0.727,1.425-1.09,2.728-1.09,3.909c0,0.382,0.104,0.704,0.312,0.963c0.207,0.26,0.57,0.39,1.09,0.39
		c2.248-0.241,3.459-0.362,3.632-0.362c1.28,0,2.552,0.458,3.814,1.375s1.895,2.275,1.895,4.073c0,1.419-0.493,2.794-1.479,4.126
		c-0.986,1.332-2.639,1.998-4.956,1.998c-2.491,0-4.533-0.962-6.124-2.886c-1.592-1.924-2.387-4.1-2.387-6.526
		C25.697,24.06,26.95,20.706,29.459,17.707z"/>
</g>
</svg>
