<?xml version="1.0" encoding="utf-8"?>
<!-- Generator: Adobe Illustrator 16.0.0, SVG Export Plug-In . SVG Version: 6.00 Build 0)  -->
<!DOCTYPE svg PUBLIC "-//W3C//DTD SVG 1.1//EN" "http://www.w3.org/Graphics/SVG/1.1/DTD/svg11.dtd">
<svg version="1.1" id="Calque_1" xmlns="http://www.w3.org/2000/svg" xmlns:xlink="http://www.w3.org/1999/xlink" x="0px" y="0px"
	 width="139.932px" height="140px" viewBox="0 0 139.932 140" enable-background="new 0 0 139.932 140" xml:space="preserve">
<path fill="#FFFFFF" d="M70,0C31.34,0,0,31.34,0,70s31.34,70,70,70c38.66,0,70-31.34,70-70S108.66,0,70,0z M94.161,38.922
	l-8.76,0.004c-6.867,0-8.197,3.263-8.197,8.053v10.561h16.38L91.451,74.08H77.204v42.443H60.123V74.08H45.839V57.539h14.283V45.34
	c0-14.156,8.646-21.865,21.274-21.865c6.049,0,11.248,0.451,12.764,0.652V38.922z"/>
</svg>
