<?xml version="1.0" encoding="utf-8"?>
<!-- Generator: Adobe Illustrator 16.0.0, SVG Export Plug-In . SVG Version: 6.00 Build 0)  -->
<!DOCTYPE svg PUBLIC "-//W3C//DTD SVG 1.1//EN" "http://www.w3.org/Graphics/SVG/1.1/DTD/svg11.dtd">
<svg version="1.1" id="Calque_1" xmlns="http://www.w3.org/2000/svg" xmlns:xlink="http://www.w3.org/1999/xlink" x="0px" y="0px"
	 width="139.932px" height="140px" viewBox="0 0 139.932 140" enable-background="new 0 0 139.932 140" xml:space="preserve">
<path fill="#FFFFFF" d="M69.966,0c-38.66,0-70,31.34-70,70s31.34,70,70,70c38.659,0,70-31.34,70-70S108.625,0,69.966,0z
	 M107.098,50.956c0.037,0.822,0.056,1.648,0.056,2.479c0,25.318-19.271,54.511-54.511,54.511c-10.82,0-20.891-3.172-29.369-8.607
	c1.499,0.177,3.023,0.268,4.57,0.268c8.977,0,17.237-3.062,23.795-8.201C43.254,91.25,36.179,85.71,33.741,78.1
	c1.17,0.223,2.371,0.344,3.605,0.344c1.747,0,3.439-0.235,5.047-0.673c-8.764-1.761-15.368-9.504-15.368-18.786
	c0-0.081,0-0.161,0.002-0.241c2.583,1.435,5.537,2.297,8.677,2.396c-5.141-3.436-8.522-9.3-8.522-15.947
	c0-3.511,0.944-6.802,2.595-9.632c9.449,11.591,23.566,19.218,39.488,20.018c-0.326-1.403-0.496-2.865-0.496-4.367
	c0-10.58,8.579-19.158,19.16-19.158c5.51,0,10.489,2.326,13.984,6.05c4.363-0.859,8.463-2.453,12.166-4.649
	c-1.431,4.474-4.469,8.229-8.424,10.6c3.875-0.463,7.568-1.493,11.004-3.017C114.09,44.88,110.842,48.254,107.098,50.956z"/>
</svg>
