<?xml version="1.0" encoding="utf-8"?>
<!-- Generator: Adobe Illustrator 16.0.0, SVG Export Plug-In . SVG Version: 6.00 Build 0)  -->
<!DOCTYPE svg PUBLIC "-//W3C//DTD SVG 1.1//EN" "http://www.w3.org/Graphics/SVG/1.1/DTD/svg11.dtd">
<svg version="1.1" id="Calque_1" xmlns="http://www.w3.org/2000/svg" xmlns:xlink="http://www.w3.org/1999/xlink" x="0px" y="0px"
	 width="414.5px" height="139px" viewBox="219.445 217.14 414.5 139" enable-background="new 219.445 217.14 414.5 139"
	 xml:space="preserve">
<path fill="none" stroke="#010202" stroke-width="1.9895" stroke-miterlimit="10" stroke-dasharray="3.979,3.3426" d="
	M339.125,289.43c0,29.505-23.913,53.417-53.422,53.417c-29.5,0-53.413-23.912-53.413-53.417c0-29.502,23.913-53.417,53.413-53.417
	C315.212,236.012,339.125,259.927,339.125,289.43z"/>
<path fill="#F0907B" d="M311.025,258.357c0,0,4.969,1.168,5.333,5.479c0.366,4.312,1.098,7.236,2.928,5.482
	c1.821-1.753,2.481-10.646,2.339-12.544c-0.149-1.902-0.808-3.313-1.466-4.045c-0.66-0.729-3.899-3.58-3.899-3.58
	S312.447,253.814,311.025,258.357"/>
<g opacity="0.3" enable-background="new    ">
	<g>
		<path id="SVGID_1_" opacity="0.3" fill="#F4D19F" enable-background="new    " d="M311.025,258.357
			c4.382,1.191,5.208,4.578,5.208,4.578c4.308-4.435-2-10.928-2-10.928c-0.847,0.672-3.235,6.471-3.235,6.471"/>
	</g>
</g>
<g opacity="0.3" enable-background="new    ">
	<g>
		<path id="SVGID_3_" opacity="0.3" fill="#F4D19F" enable-background="new    " d="M314.873,251.281c0,0,5.262,6.034,6.527,8.813
			c0,0,1.19-5.343-1.65-7.879c-2.656-2.358-3.055-2.788-3.489-3.204L314.873,251.281z"/>
	</g>
	<g>
		<defs>
			<path id="SVGID_2_" d="M314.873,251.281c0,0,5.262,6.034,6.527,8.813c0,0,1.19-5.343-1.65-7.879
				c-2.656-2.358-3.055-2.788-3.489-3.204L314.873,251.281z"/>
		</defs>
		<clipPath id="SVGID_4_">
			<use xlink:href="#SVGID_2_"  overflow="visible"/>
		</clipPath>
		<rect x="314.873" y="249.011" clip-path="url(#SVGID_4_)" fill="#F4D19F" width="7.718" height="11.083"/>
	</g>
</g>
<g>
	<g>
		<path id="SVGID_5_" fill="#F0907B" d="M300.781,241.249c-9.897,3.034-12.82,11.363-12.969,13.74
			c-0.064,1.122,0.41,15.126,6.84,21.117c6.439,5.992,13.548,16.172,14.327,17.681c0.785,1.51,4.818,12.839-1.899,12.328
			c-3.456-0.266-6.022-4.091-9.45-8.573c-1.759-2.301-9.744-8.605-18.272-8.33c-15,0.486-27.378,8.084-33.32,13.935
			c-5.941,5.843-14.852,19.384-15.733,21.187c-0.873,1.805-3.263,9.308-3.263,9.308s-0.492,2.681,2.094,0l2.339-3.718
			c0,0-1.612,3.933-1.76,4.904c-0.14,0.979,1.649-0.813,1.649-0.813s-0.295,1.54,1.826-0.327c2.121-1.86,4.093-3.506,5.41-4.235
			c0.728-0.41,0.635,0.275,0.472,0.961c-0.132,0.549-0.308,1.101-0.146,1.084c0.367-0.039,1.021-0.111,2.923-1.314
			c1.901-1.207,7.305-4.313,9.46-5.079c2.157-0.769,5.23,0.073,6.395,0.365c1.169,0.293,9.94,5.952,16.59,4.968
			c6.653-0.984,10.85-3.436,12.055-3.762c0.605-0.168,2.056-0.029,3.692,0.105c1.624,0.139,3.432,0.27,4.783,0.11
			c5.699-0.658,14.106-3.726,17.32-6.281c2.763-2.194,11.034-9.208,9.797-18.415c-1.246-9.206-6.655-18.269-9.067-21.922
			c-2.409-3.651-10.182-11.716-11.541-14.833c-1.367-3.118-2.629-4.139-1.663-8.377c0,0,0.49-1.659,2.388-0.536
			c1.9,1.119,3.068,1.994,6.629,1.847c0,0,2.06-0.09,2.285-0.021c0,0,1.07-2.247,2.57-5.416c0,0,2.151-2.825,2.669-3.938
			c0,0-4.25-8.286-11.971-8.286C303.161,240.711,302.006,240.873,300.781,241.249"/>
	</g>
	<g>
		<defs>
			<path id="SVGID_6_" d="M300.781,241.249c-9.897,3.034-12.82,11.363-12.969,13.74c-0.064,1.122,0.41,15.126,6.84,21.117
				c6.439,5.992,13.548,16.172,14.327,17.681c0.785,1.51,4.818,12.839-1.899,12.328c-3.456-0.266-6.022-4.091-9.45-8.573
				c-1.759-2.301-9.744-8.605-18.272-8.33c-15,0.486-27.378,8.084-33.32,13.935c-5.941,5.843-14.852,19.384-15.733,21.187
				c-0.873,1.805-3.263,9.308-3.263,9.308s-0.492,2.681,2.094,0l2.339-3.718c0,0-1.612,3.933-1.76,4.904
				c-0.14,0.979,1.649-0.813,1.649-0.813s-0.295,1.54,1.826-0.327c2.121-1.86,4.093-3.506,5.41-4.235
				c0.728-0.41,0.635,0.275,0.472,0.961c-0.132,0.549-0.308,1.101-0.146,1.084c0.367-0.039,1.021-0.111,2.923-1.314
				c1.901-1.207,7.305-4.313,9.46-5.079c2.157-0.769,5.23,0.073,6.395,0.365c1.169,0.293,9.94,5.952,16.59,4.968
				c6.653-0.984,10.85-3.436,12.055-3.762c0.605-0.168,2.056-0.029,3.692,0.105c1.624,0.139,3.432,0.27,4.783,0.11
				c5.699-0.658,14.106-3.726,17.32-6.281c2.763-2.194,11.034-9.208,9.797-18.415c-1.246-9.206-6.655-18.269-9.067-21.922
				c-2.409-3.651-10.182-11.716-11.541-14.833c-1.367-3.118-2.629-4.139-1.663-8.377c0,0,0.49-1.659,2.388-0.536
				c1.9,1.119,3.068,1.994,6.629,1.847c0,0,2.06-0.09,2.285-0.021c0,0,1.07-2.247,2.57-5.416c0,0,2.151-2.825,2.669-3.938
				c0,0-4.25-8.286-11.971-8.286C303.161,240.711,302.006,240.873,300.781,241.249"/>
		</defs>
		<clipPath id="SVGID_8_">
			<use xlink:href="#SVGID_6_"  overflow="visible"/>
		</clipPath>
		<rect x="226.55" y="240.711" clip-path="url(#SVGID_8_)" fill="#F0907B" width="96.629" height="95.607"/>
	</g>
</g>
<g opacity="0.3" enable-background="new    ">
	<g>
		<path id="SVGID_7_" opacity="0.3" fill="#F4D19F" enable-background="new    " d="M314.569,247.396
			c0,0.474-1.13,0.618-1.534-0.292c-0.406-0.915-1.79-1.464-2.521-0.841c-0.731,0.624-0.911,1.427,0.252,3.364
			c1.177,1.937,0.807,3.98,0.807,3.98c-1.354,2.779-1.207,4.566-1.207,4.566l-0.016,0.111l0.675,0.074c0,0,1.013-1.878,1.487-3.249
			c0.675-1.968,1.763-3.083,2.108-3.481c0.34-0.392,1.639-2.624,1.639-2.624c-0.905-1.936-3.597-4.642-3.597-4.642
			S314.569,246.92,314.569,247.396"/>
	</g>
	<g>
		<defs>
			<path id="SVGID_10_" d="M314.997,247.582c-0.042,0.472-1.181,0.514-1.502-0.428c-0.322-0.948-1.651-1.618-2.435-1.063
				c-0.784,0.556-1.036,1.339-0.05,3.373c0.998,2.034,0.446,4.036,0.446,4.036c-1.596,2.646-1.61,4.439-1.61,4.439l-0.025,0.109
				l0.665,0.134c0,0,1.177-1.779,1.772-3.103c0.848-1.9,2.031-2.913,2.411-3.278c0.374-0.36,1.867-2.467,1.867-2.467
				c-0.729-2.009-3.167-4.945-3.167-4.945S315.04,247.108,314.997,247.582"/>
		</defs>
		<clipPath id="SVGID_12_">
			<use xlink:href="#SVGID_10_"  overflow="visible"/>
		</clipPath>
		
			<rect x="308.916" y="245.071" transform="matrix(-0.996 -0.0895 0.0895 -0.996 601.8907 531.6509)" clip-path="url(#SVGID_12_)" fill="#F4D19F" width="7.887" height="14.533"/>
	</g>
</g>
<path d="M313.621,248.735c0,0.419-0.339,0.756-0.752,0.756c-0.416,0-0.755-0.336-0.755-0.756c0-0.414,0.339-0.749,0.755-0.749
	C313.282,247.986,313.621,248.322,313.621,248.735"/>
<g>
	<g>
		<path id="SVGID_9_" fill="#F0907B" d="M287.374,326.311c-0.776,0.015-1.661,0.515-1.661,0.515
			c2.617,4.332,0.494,15.527,0.494,15.527l2.682-0.331c-0.881-5.748,1.955-15.579,1.955-15.579s-2.46-0.132-3.357-0.132
			C287.445,326.311,287.407,326.311,287.374,326.311"/>
	</g>
</g>
<path fill="#010202" d="M298.097,227.624c1.35-0.059,2.704-0.116,4.056-0.176c1.011-0.017,2.03-0.033,3.051-0.051
	c1.572,0.18,4.905,0.114,6.063-0.096c0.738-0.135,2.22-0.123,2.502,0.374c0.225,0.679-0.242,2.876-0.363,3.579
	c-0.432,2.458,0.005,5.542-0.05,8.415c1.477,0.093,3.521,1.936,4.23,2.979c0.236,0.359,0.838,0.983,0.75,1.613
	c-0.166,1.131-1.455,2.176-2.542,2.71c-2.136,1.051-5.42,0.993-7.898,0.501c-4.272-0.844-8.598-1.157-12.513-2.23
	c-1.769-0.482-5.53-0.39-5.062-2.789c0.414-0.248,0.762-0.454,1.387-0.458c0.255,0,0.509,0.005,0.762,0.011
	c0.52-0.14,1.261-0.525,1.794-0.48c-0.1-3.07,0.266-6.764-0.381-9.911c-0.146-0.708-0.481-3.202-0.104-3.482
	C294.798,227.487,296.993,228.11,298.097,227.624"/>
<g>
	<path fill="#010202" d="M377.979,265.019c-0.402,1.457-0.907,3.542-1.517,6.254c-0.601,2.712-1.256,5.807-1.939,9.283
		c-0.69,3.476-1.417,7.136-2.185,10.978c-0.772,3.841-1.459,7.625-2.063,11.35c-0.611,3.72-1.154,7.221-1.632,10.5
		c-0.493,3.275-0.77,6.037-0.854,8.309c-0.091,2.504-0.091,4.973,0,7.4c0.084,2.113,0.219,4.308,0.422,6.615
		c0.205,2.303,0.584,4.344,1.155,6.131c-1.366,0.644-2.599,1.109-3.636,1.386c-1.057,0.284-1.907,0.51-2.555,0.673
		c-0.812,0.165-1.496,0.244-2.069,0.244c-0.645,0-1.414-0.063-2.301-0.186c-0.882-0.115-1.691-0.543-2.425-1.268
		c-0.729-0.738-1.333-1.872-1.821-3.398c-0.481-1.535-0.644-3.762-0.481-6.682c0.077-1.934,0.386-4.346,0.901-7.223
		c0.535-2.866,1.155-6.02,1.881-9.465c0.733-3.43,1.564-6.994,2.493-10.672c0.937-3.688,1.837-7.28,2.728-10.808
		c0.889-3.513,1.72-6.854,2.495-10.007c0.757-3.153,1.43-5.869,1.993-8.131c0.731-2.916,1.538-6.308,2.431-10.19
		c1.535-6.637,3.843-16.581,6.921-29.859c0.558-0.403,1.172-0.784,1.823-1.148c0.64-0.36,1.213-0.671,1.694-0.911
		c0.57-0.323,1.131-0.56,1.706-0.725c2.577-0.974,4.42-1.095,5.508-0.364c1.1,0.728,1.717,2.189,1.887,4.363
		c0.081,1.459,0.258,3.57,0.552,6.313c0.273,2.758,0.537,5.829,0.771,9.221c0.251,3.396,0.462,6.904,0.614,10.503
		c0.167,3.592,0.238,6.933,0.238,10.003c0,2.034,0.048,4.416,0.125,7.164c0.082,2.753,0.205,5.668,0.368,8.741
		c0.157,3.07,0.352,6.205,0.607,9.408c0.238,3.193,0.524,6.239,0.851,9.154c0.325,2.921,0.664,5.587,1.034,8.011
		c0.364,2.427,0.746,4.41,1.147,5.944c0.157,0.656,0.343,1.26,0.55,1.826c0.198,0.562,0.383,1.129,0.543,1.688
		c0.479-1.938,1.039-4.236,1.634-6.906c0.615-2.676,1.252-5.521,1.938-8.55c0.695-3.042,1.354-6.161,2.017-9.354
		c0.644-3.19,1.2-6.205,1.693-9.042c0.404-2.261,0.855-5.178,1.331-8.731c0.485-3.564,1.055-7.408,1.697-11.529
		c-0.877-0.33-1.736-0.653-2.545-0.969c-0.733-0.321-1.459-0.735-2.177-1.214c-0.733-0.494-1.338-1.053-1.829-1.703
		c0.084-1.051,0.188-1.818,0.301-2.306c0.127-0.48,0.507-0.525,1.156-0.123c0.483,0.242,1.236,0.529,2.246,0.856
		c1.006,0.318,2.205,0.559,3.585,0.724c0.399-2.259,0.862-4.529,1.396-6.802c0.515-2.259,1.065-4.446,1.629-6.545
		c0.889-3.484,1.904-6.618,3.036-9.406c1.132-2.789,2.453-5.155,3.942-7.098c1.493-1.944,3.256-3.437,5.276-4.49
		c2.021-1.05,4.377-1.616,7.041-1.698c2.516,0,4.547,1.028,6.137,3.087c1.566,2.064,2.234,5.647,1.994,10.748
		c-0.166,3.808-0.943,7.211-2.365,10.251c-1.414,3.038-3.139,5.692-5.154,8.01c-2.023,2.3-4.25,4.199-6.672,5.701
		c-2.426,1.506-4.732,2.563-6.921,3.212c-0.727,3.811-1.419,7.634-2.063,11.469c-0.647,3.849-1.275,7.571-1.891,11.169
		c-0.592,3.6-1.203,7.019-1.817,10.252c-0.601,3.238-1.187,6.115-1.748,8.611c-0.57,2.434-1.184,5.055-1.819,7.896
		c-0.563,2.418-1.261,5.213-2.067,8.363c-0.813,3.164-1.663,6.479-2.544,9.959c-0.326,0.719-0.735,1.351-1.219,1.877
		c-0.487,0.533-0.967,0.946-1.457,1.274c-0.565,0.403-1.131,0.72-1.703,0.972c-1.608,0.648-2.991,0.764-4.118,0.362
		c-1.139-0.405-2.152-1.5-3.04-3.276c-0.887-1.865-1.684-4.158-2.362-6.912c-0.688-2.758-1.396-5.742-2.126-8.978
		c-0.713-3.489-1.275-7.272-1.643-11.351c-0.362-4.088-0.645-8.256-0.849-12.504c-0.193-4.236-0.339-8.479-0.413-12.686
		c-0.086-4.199-0.25-8.17-0.49-11.885c-0.408-4.853-0.814-9.2-1.215-13.049c-0.398-3.833-0.846-7.095-1.328-9.762
		c-0.332,1.615-0.694,3.432-1.098,5.458C378.912,260.85,378.459,262.921,377.979,265.019 M418.749,259.925
		c-0.403,1.538-0.726,2.996-0.972,4.361c1.948-1.122,3.765-2.562,5.47-4.303c1.691-1.739,3.146-3.584,4.359-5.521
		c1.217-1.941,2.16-3.882,2.859-5.824c0.688-1.939,1.063-3.715,1.154-5.336c0.072-1.142-0.027-2.042-0.313-2.736
		c-0.283-0.684-0.783-1.031-1.52-1.031c-0.402,0-1.025,0.222-1.877,0.671c-0.846,0.445-1.801,1.377-2.855,2.786
		c-1.051,1.413-2.115,3.458-3.219,6.137C420.756,251.786,419.726,255.388,418.749,259.925"/>
	<path fill="#010202" d="M453.906,323.714c-0.805,3.082-1.893,5.938-3.268,8.619c-1.381,2.67-3.02,4.977-4.918,6.916
		c-1.896,1.939-4.041,3.455-6.42,4.555c-2.396,1.086-5.01,1.627-7.838,1.627c-3.318,0-5.93-0.704-7.83-2.118
		c-1.906-1.415-3.309-3.166-4.247-5.287c-0.926-2.096-1.497-4.396-1.693-6.909c-0.204-2.506-0.308-4.857-0.308-7.039
		c0-1.535,0.175-3.229,0.539-5.096c0.374-1.859,0.873-3.762,1.519-5.701c0.651-1.936,1.479-3.887,2.495-5.83
		c1.002-1.943,2.201-3.72,3.572-5.33c0.492-1.389,1.236-2.597,2.248-3.646c1.006-1.048,2.18-1.916,3.523-2.612
		c1.33-0.684,2.766-1.208,4.303-1.572c1.545-0.366,3.029-0.543,4.492-0.543c0.246,0,0.459,0.037,0.666,0.125
		c0.199,0.074,0.424,0.158,0.666,0.237c1.053,0.089,2.377,0.484,3.941,1.21c1.584,0.728,3.117,1.823,4.613,3.28
		c1.496,1.453,2.775,3.293,3.82,5.514c1.055,2.23,1.584,4.922,1.584,8.084c0,0.646-0.041,1.432-0.119,2.36
		c-0.078,0.931-0.162,1.718-0.25,2.37c1.863-0.736,3.799-1.624,5.826-2.678c2.025-1.045,3.984-2.162,5.883-3.342
		c1.906-1.166,3.666-2.357,5.287-3.574c1.607-1.215,2.91-2.307,3.875-3.276c0.818-0.726,1.502-1.132,2.066-1.208
		c0.563-0.083,0.967,0.076,1.215,0.482c0.24,0.4,0.277,0.974,0.123,1.695c-0.168,0.729-0.613,1.535-1.338,2.426
		c-0.404,0.485-1.438,1.457-3.096,2.918c-1.664,1.455-3.615,3.029-5.883,4.729c-2.268,1.708-4.73,3.359-7.402,4.975
		C458.884,321.692,456.339,322.903,453.906,323.714 M425.64,326.625c0,1.463,0.076,2.903,0.244,4.314
		c0.158,1.408,0.48,2.668,0.959,3.758c0.49,1.086,1.141,1.987,1.953,2.666c0.805,0.689,1.857,1.035,3.146,1.035
		c1.459,0,2.795-0.346,4.004-1.035c1.225-0.679,2.305-1.58,3.281-2.666c0.975-1.09,1.834-2.35,2.605-3.758
		c0.777-1.411,1.436-2.896,2.006-4.43c-0.57,0.076-1.113,0.137-1.643,0.179c-0.518,0.035-1.117,0.06-1.764,0.06
		c-3.063,0-5.721-0.91-7.943-2.732c-2.227-1.814-3.938-4.137-5.158-6.977c-0.488,1.703-0.885,3.358-1.211,4.98
		C425.8,323.63,425.64,325.173,425.64,326.625 M433.402,305.271c-0.232,0.73-0.361,1.504-0.361,2.307
		c0,1.289,0.084,2.651,0.244,4.063c0.158,1.417,0.557,2.689,1.217,3.828c0.641,1.132,1.676,2.072,3.09,2.854
		c1.414,0.76,3.371,1.148,5.883,1.148c0.4,0,0.807-0.023,1.211-0.065c0.412-0.036,0.811-0.099,1.215-0.188
		c0.244-1.043,0.463-1.991,0.674-2.846c0.195-0.836,0.297-1.588,0.297-2.242c0.168-1.533,0.168-3.109,0-4.733
		c-0.16-1.614-0.463-3.091-0.9-4.433c-0.449-1.334-1.016-2.422-1.707-3.271c-0.688-0.85-1.51-1.271-2.479-1.271
		c-1.547,0-3.021,0.422-4.428,1.271C435.929,302.541,434.621,303.73,433.402,305.271"/>
	<path fill="#010202" d="M505.484,319.83c-0.406,2.51-0.789,4.896-1.152,7.162c-0.369,2.26-0.594,4.082-0.668,5.461
		c-0.08,2.021,0.283,3.478,1.094,4.366c0.801,0.894,1.701,1.339,2.67,1.339c1.129,0,2.527-0.564,4.184-1.705
		c1.658-1.134,3.42-2.543,5.277-4.244c1.859-1.699,3.713-3.551,5.584-5.584c1.865-2.015,3.584-3.937,5.154-5.767
		c1.58-1.815,2.916-3.409,4.008-4.784c1.084-1.379,1.836-2.26,2.24-2.676c0.494-0.479,0.988-0.768,1.525-0.854
		c0.518-0.07,0.953,0,1.27,0.246c0.318,0.242,0.479,0.685,0.479,1.336c0,0.654-0.322,1.457-0.963,2.429
		c-0.977,1.532-2.229,3.336-3.768,5.392c-1.539,2.067-3.23,4.195-5.094,6.381c-1.861,2.182-3.822,4.328-5.885,6.428
		c-2.053,2.105-4.123,3.963-6.188,5.582c-2.061,1.619-4.055,2.934-5.949,3.947c-1.906,1.008-3.619,1.516-5.162,1.516
		c-1.123,0-2.203-0.32-3.213-0.969c-1.01-0.654-1.916-1.494-2.729-2.543c-0.813-1.056-1.441-2.236-1.881-3.516
		c-0.449-1.305-0.631-2.596-0.553-3.891c0.086-0.564,0.209-1.539,0.369-2.909c-3.391,3.798-6.814,6.805-10.242,9.022
		c-3.449,2.229-6.742,3.348-9.896,3.348c-1.133,0-2.35-0.281-3.639-0.848c-1.301-0.563-2.449-1.494-3.463-2.8
		c-1.016-1.288-1.838-2.983-2.484-5.092s-0.891-4.655-0.736-7.646c0.248-4.69,1.178-9.135,2.789-13.346
		c1.621-4.214,3.664-7.869,6.139-10.988c2.461-3.106,5.264-5.58,8.367-7.396c3.119-1.819,6.256-2.734,9.412-2.734
		c1.367,0,2.615,0.35,3.756,1.036c1.139,0.692,2.105,1.577,2.914,2.67c0.813,1.094,1.469,2.285,2.002,3.583
		c0.521,1.293,0.908,2.502,1.148,3.637c0.57-2.344,1.102-4.65,1.58-6.915c0.494-2.269,0.975-4.409,1.459-6.428
		c0.805-2.994,1.658-6.239,2.551-9.708c0.795-3,1.73-6.436,2.791-10.32c1.041-3.882,2.219-7.97,3.514-12.254
		c0.807-0.652,1.58-1.141,2.311-1.46c0.723-0.324,1.412-0.564,2.057-0.727c0.73-0.251,1.422-0.366,2.074-0.366
		c0.803,0,1.521,0.107,2.176,0.297c0.648,0.207,1.191,0.734,1.643,1.589c0.438,0.842,0.744,2.116,0.91,3.82
		c0.158,1.695,0.158,4.004,0,6.918c-0.166,3.557-0.795,7.437-1.887,11.643c-1.088,4.215-2.529,8.567-4.307,13.052
		c-1.775,4.484-3.82,8.978-6.121,13.469C510.64,311.515,508.152,315.787,505.484,319.83 M498.32,321.414
		c0.324-1.535,0.625-3.078,0.91-4.608c0.281-1.539,0.635-3.12,1.039-4.742c-0.166,0.087-0.305,0.165-0.426,0.246
		c-0.117,0.082-0.266,0.166-0.428,0.235c-0.904,0.414-1.494,0.396-1.818-0.051c-0.32-0.447-0.494-1.148-0.494-2.125
		c0-0.492-0.043-1.357-0.111-2.609c-0.09-1.256-0.301-2.561-0.672-3.891c-0.363-1.328-0.912-2.496-1.639-3.515
		c-0.725-1.021-1.734-1.513-3.033-1.513c-1.857,0-3.758,0.945-5.703,2.849c-1.941,1.897-3.758,4.215-5.461,6.914
		c-1.699,2.72-3.111,5.604-4.254,8.676c-1.125,3.076-1.773,5.823-1.934,8.253c-0.168,3.885,0.32,6.676,1.455,8.377
		c1.137,1.695,2.672,2.543,4.609,2.543c1.463,0,3.049-0.563,4.791-1.697c1.748-1.127,3.447-2.504,5.102-4.117
		c1.664-1.631,3.191-3.288,4.609-4.98C496.275,323.96,497.429,322.541,498.32,321.414"/>
	<path fill="#010202" d="M565.552,319.83c-0.42,2.51-0.789,4.896-1.152,7.162c-0.355,2.26-0.6,4.082-0.672,5.461
		c-0.084,2.021,0.279,3.478,1.1,4.366c0.803,0.894,1.703,1.339,2.676,1.339c1.119,0,2.518-0.564,4.184-1.705
		c1.646-1.134,3.412-2.543,5.271-4.244c1.861-1.699,3.723-3.551,5.582-5.584c1.859-2.015,3.58-3.937,5.162-5.767
		c1.576-1.815,2.902-3.409,3.996-4.784c1.098-1.379,1.846-2.26,2.252-2.676c0.48-0.479,0.992-0.768,1.508-0.854
		c0.533-0.07,0.959,0,1.277,0.246c0.328,0.242,0.488,0.685,0.488,1.336c0,0.654-0.322,1.457-0.967,2.429
		c-0.971,1.532-2.23,3.336-3.768,5.392c-1.539,2.067-3.229,4.195-5.096,6.381c-1.863,2.182-3.828,4.328-5.887,6.428
		c-2.063,2.105-4.125,3.963-6.189,5.582c-2.063,1.619-4.051,2.934-5.945,3.947c-1.898,1.008-3.631,1.516-5.16,1.516
		c-1.123,0-2.201-0.32-3.209-0.969c-1.012-0.654-1.922-1.494-2.73-2.543c-0.814-1.056-1.438-2.236-1.877-3.516
		c-0.449-1.305-0.637-2.596-0.559-3.891c0.09-0.564,0.215-1.539,0.365-2.909c-3.395,3.798-6.807,6.805-10.258,9.022
		c-3.434,2.229-6.727,3.348-9.881,3.348c-1.137,0-2.338-0.281-3.646-0.848c-1.291-0.563-2.438-1.494-3.457-2.8
		c-1.014-1.288-1.834-2.983-2.486-5.092c-0.637-2.108-0.891-4.655-0.729-7.646c0.242-4.69,1.176-9.135,2.795-13.346
		c1.611-4.214,3.66-7.869,6.131-10.988c2.461-3.106,5.256-5.58,8.375-7.396c3.104-1.819,6.248-2.734,9.4-2.734
		c1.373,0,2.633,0.35,3.756,1.036c1.135,0.692,2.105,1.577,2.92,2.67c0.807,1.094,1.471,2.285,2.006,3.583
		c0.51,1.293,0.902,2.502,1.145,3.637c0.564-2.344,1.092-4.65,1.582-6.915c0.48-2.269,0.973-4.409,1.457-6.428
		c0.805-2.994,1.652-6.239,2.545-9.708c0.813-3,1.738-6.436,2.789-10.32c1.049-3.882,2.223-7.97,3.525-12.254
		c0.801-0.652,1.576-1.141,2.305-1.46c0.721-0.324,1.42-0.564,2.063-0.727c0.723-0.251,1.406-0.366,2.063-0.366
		c0.797,0,1.535,0.107,2.18,0.297c0.645,0.207,1.195,0.734,1.635,1.589c0.457,0.842,0.752,2.116,0.912,3.82
		c0.168,1.695,0.168,4.004,0,6.918c-0.16,3.557-0.775,7.437-1.875,11.643c-1.092,4.215-2.537,8.567-4.313,13.052
		c-1.779,4.484-3.822,8.978-6.131,13.469C570.703,311.515,568.22,315.787,565.552,319.83 M558.392,321.414
		c0.322-1.535,0.619-3.078,0.904-4.608c0.283-1.539,0.633-3.12,1.037-4.742c-0.162,0.087-0.305,0.165-0.426,0.246
		c-0.121,0.082-0.266,0.166-0.432,0.235c-0.891,0.414-1.498,0.396-1.814-0.051c-0.324-0.447-0.484-1.148-0.484-2.125
		c0-0.492-0.045-1.357-0.121-2.609c-0.082-1.256-0.313-2.561-0.662-3.891c-0.377-1.328-0.918-2.496-1.643-3.515
		c-0.732-1.021-1.738-1.513-3.037-1.513c-1.861,0-3.76,0.945-5.697,2.849c-1.945,1.897-3.764,4.215-5.467,6.914
		c-1.693,2.72-3.113,5.604-4.246,8.676c-1.137,3.076-1.783,5.823-1.936,8.253c-0.166,3.885,0.322,6.676,1.441,8.377
		c1.139,1.695,2.689,2.543,4.619,2.543c1.457,0,3.053-0.563,4.787-1.697c1.746-1.127,3.447-2.504,5.111-4.117
		c1.641-1.631,3.189-3.288,4.598-4.98C556.349,323.96,557.501,322.541,558.392,321.414"/>
	<path fill="#010202" d="M596.978,297.375c0.408-0.482,1.17-0.885,2.307-1.208c1.129-0.317,2.305-0.588,3.523-0.793
		c1.205-0.199,2.324-0.317,3.338-0.359c1.006-0.043,1.592-0.014,1.76,0.062c0.08,0.077-0.125,0.929-0.607,2.541
		c-0.49,1.629-1.096,3.525-1.826,5.711c-0.727,2.176-1.486,4.43-2.299,6.729c-0.813,2.306-1.42,4.188-1.828,5.642
		c-0.4,1.453-0.889,3.1-1.457,4.918c-0.566,1.817-1.063,3.604-1.514,5.346c-0.445,1.734-0.746,3.367-0.91,4.91
		c-0.162,1.53-0.037,2.713,0.363,3.514c0.404,0.973,0.855,1.636,1.346,2.006c0.48,0.367,1.008,0.545,1.568,0.545
		c1.617,0,3.658-0.882,6.125-2.67c2.477-1.773,4.982-3.902,7.531-6.367c2.545-2.469,4.91-4.984,7.096-7.523
		c2.178-2.553,3.807-4.592,4.854-6.131c0.654-0.812,1.313-1.328,1.998-1.568c0.691-0.252,1.258-0.204,1.703,0.119
		c0.438,0.318,0.686,0.848,0.732,1.578c0.031,0.721-0.234,1.574-0.797,2.549c-1.289,2.265-3.193,4.945-5.697,8.066
		c-2.51,3.111-5.18,6.104-8.018,8.977c-2.826,2.871-5.596,5.322-8.307,7.344c-2.719,2.025-4.916,3.07-6.619,3.154
		c-1.367,0.076-2.725-0.135-4.064-0.662c-1.332-0.533-2.553-1.26-3.646-2.188c-1.082-0.924-1.994-2.025-2.717-3.285
		c-0.736-1.244-1.135-2.56-1.227-3.941c-0.232-2.021-0.232-4.792,0-8.311c0.252-3.521,0.697-7.111,1.346-10.791
		c0.648-3.687,1.473-7.177,2.479-10.502C594.537,301.466,595.689,299,596.978,297.375 M613.726,271.533
		c-0.24,0.892-0.717,1.76-1.398,2.613c-0.676,0.849-1.451,1.535-2.307,2.064c-0.84,0.522-1.717,0.868-2.611,1.021
		c-0.881,0.167-1.615,0-2.178-0.478c-1.697-1.294-2.586-2.691-2.668-4.194c-0.088-1.491,0.275-2.908,1.09-4.24
		c0.809-1.333,1.816-2.466,3.041-3.402c1.211-0.93,2.26-1.474,3.146-1.64c0.895-0.16,1.643,0.022,2.244,0.548
		c0.607,0.529,1.072,1.212,1.398,2.064c0.316,0.852,0.5,1.802,0.549,2.848C614.062,269.797,613.962,270.728,613.726,271.533"/>
</g>
<g opacity="0.8" enable-background="new    ">
	<g>
		<path id="SVGID_11_" opacity="0.3" fill="#F4D19F" enable-background="new    " d="M267.771,295.833
			c-17.031,5.407-27.704,22.215-27.704,22.215s-3.429,4.166-2.113,4.968c1.309,0.806,8.329-6.138,9.203-7.015
			c0.879-0.877-0.659,2.047-0.292,2.777c0.367,0.729,1.973-0.221,2.928-0.804c0.509-0.313,0.173,0.444-0.04,1.207
			c-0.183,0.653-0.279,1.312,0.324,1.274c1.316-0.072,7.75-3.213,11.258-6.793c3.51-3.582-4.241,5.994-3.21,7.088
			c1.02,1.096,5.548-2.853,5.548-2.853s0.435,0.731,1.901-0.069c1.461-0.806,5.915-4.461,5.915-4.461s-6.426,8.479-5.622,10.301
			c0.802,1.83,6.5-2.117,6.5-2.117s-0.359,1.021,0.949,0.367c1.315-0.658,7.454-5.332,7.454-5.332s-4.822,5.186-0.509,5.041
			c4.312-0.148,10.298-3.143,10.298-3.143s-2.48,3.215-1.457,3.434c1.021,0.22,11.399-5.188,12.419-9.646
			c1.021-4.454-5.411-9.499-5.411-9.499s-7.619-8.312-19.758-8.312C273.7,294.463,270.827,294.864,267.771,295.833"/>
	</g>
	<g>
		<defs>
			<path id="SVGID_13_" d="M267.409,295.898c-16.89,5.832-27.138,22.904-27.138,22.904s-3.324,4.25-1.988,5.02
				c1.329,0.771,8.172-6.346,9.024-7.244c0.857-0.899-0.607,2.063-0.222,2.784c0.385,0.72,1.967-0.271,2.907-0.878
				c0.501-0.325,0.184,0.439-0.01,1.209c-0.167,0.658-0.246,1.318,0.356,1.265c1.313-0.104,7.667-3.407,11.084-7.072
				c3.419-3.669-4.089,6.098-3.031,7.165c1.047,1.07,5.475-2.99,5.475-2.99s0.453,0.72,1.898-0.117
				c1.44-0.842,5.801-4.607,5.801-4.607s-6.211,8.637-5.362,10.438c0.848,1.811,6.445-2.279,6.445-2.279s-0.333,1.029,0.958,0.344
				c1.298-0.691,7.318-5.518,7.318-5.518s-4.69,5.305-0.382,5.052c4.307-0.257,10.216-3.399,10.216-3.399s-2.399,3.276-1.371,3.469
				c1.026,0.193,11.266-5.472,12.173-9.954c0.909-4.479-5.646-9.36-5.646-9.36s-7.825-8.118-19.96-7.813
				C273.302,294.379,270.44,294.853,267.409,295.898"/>
		</defs>
		<clipPath id="SVGID_14_">
			<use xlink:href="#SVGID_13_"  overflow="visible"/>
		</clipPath>
	</g>
</g>
</svg>
