<?xml version="1.0" encoding="utf-8"?>
<!-- Generator: Adobe Illustrator 16.0.0, SVG Export Plug-In . SVG Version: 6.00 Build 0)  -->
<!DOCTYPE svg PUBLIC "-//W3C//DTD SVG 1.1//EN" "http://www.w3.org/Graphics/SVG/1.1/DTD/svg11.dtd">
<svg version="1.1" id="Calque_1" xmlns="http://www.w3.org/2000/svg" xmlns:xlink="http://www.w3.org/1999/xlink" x="0px" y="0px"
	 width="414.5px" height="139px" viewBox="0 0 414.5 139" enable-background="new 0 0 414.5 139" xml:space="preserve">
<path fill="none" stroke="#010202" stroke-width="1.9895" stroke-miterlimit="10" stroke-dasharray="3.979,3.3426" d="
	M117.48,72.416c0,29.506-23.913,53.418-53.422,53.418c-29.5,0-53.413-23.912-53.413-53.418C10.646,42.914,34.559,19,64.059,19
	C93.567,18.998,117.48,42.913,117.48,72.416z"/>
<path fill="#F0907B" d="M89.381,41.344c0,0,4.969,1.168,5.333,5.479c0.365,4.313,1.098,7.236,2.928,5.482
	c1.821-1.754,2.48-10.646,2.339-12.545c-0.149-1.901-0.808-3.313-1.466-4.045c-0.66-0.729-3.899-3.58-3.899-3.58
	S90.803,36.801,89.381,41.344"/>
<g opacity="0.3" enable-background="new    ">
	<g>
		<path id="SVGID_1_" opacity="0.3" fill="#F4D19F" enable-background="new    " d="M89.381,41.344
			c4.382,1.19,5.208,4.578,5.208,4.578c4.308-4.436-2-10.929-2-10.929c-0.848,0.673-3.235,6.472-3.235,6.472"/>
	</g>
</g>
<g opacity="0.3" enable-background="new    ">
	<g>
		<path id="SVGID_3_" opacity="0.3" fill="#F4D19F" enable-background="new    " d="M93.229,34.268c0,0,5.262,6.033,6.527,8.813
			c0,0,1.189-5.343-1.65-7.879c-2.656-2.357-3.055-2.788-3.489-3.204L93.229,34.268z"/>
	</g>
	<g>
		<g>
			<defs>
				<path id="SVGID_2_" d="M93.229,34.268c0,0,5.262,6.033,6.527,8.813c0,0,1.189-5.343-1.65-7.879
					c-2.656-2.357-3.055-2.788-3.489-3.204L93.229,34.268z"/>
			</defs>
			<clipPath id="SVGID_4_">
				<use xlink:href="#SVGID_2_"  overflow="visible"/>
			</clipPath>
			<rect x="93.229" y="31.997" clip-path="url(#SVGID_4_)" fill="#F4D19F" width="7.718" height="11.083"/>
		</g>
	</g>
</g>
<g>
	<g>
		<path id="SVGID_5_" fill="#F0907B" d="M79.137,24.235c-9.897,3.034-12.82,11.362-12.969,13.74
			c-0.064,1.122,0.41,15.126,6.84,21.116c6.438,5.992,13.548,16.172,14.326,17.682c0.785,1.51,4.818,12.839-1.898,12.328
			c-3.456-0.266-6.022-4.092-9.45-8.573c-1.759-2.301-9.743-8.604-18.272-8.33c-15,0.486-27.377,8.084-33.319,13.935
			c-5.94,5.844-14.853,19.385-15.733,21.188c-0.873,1.805-3.263,9.309-3.263,9.309s-0.492,2.681,2.094,0l2.339-3.719
			c0,0-1.611,3.934-1.76,4.904c-0.14,0.979,1.649-0.813,1.649-0.813s-0.296,1.539,1.825-0.328c2.121-1.859,4.094-3.506,5.41-4.234
			c0.729-0.41,0.635,0.275,0.473,0.961c-0.133,0.549-0.309,1.102-0.146,1.084c0.367-0.039,1.021-0.111,2.924-1.314
			c1.9-1.207,7.305-4.313,9.459-5.078c2.157-0.77,5.23,0.072,6.396,0.365c1.169,0.293,9.94,5.951,16.59,4.967
			c6.653-0.983,10.851-3.436,12.056-3.762c0.604-0.168,2.055-0.029,3.691,0.105c1.624,0.139,3.432,0.27,4.783,0.109
			c5.699-0.658,14.105-3.726,17.319-6.281c2.764-2.193,11.034-9.207,9.798-18.414c-1.246-9.206-6.655-18.27-9.067-21.922
			c-2.409-3.651-10.182-11.717-11.541-14.834c-1.367-3.117-2.629-4.139-1.663-8.377c0,0,0.49-1.658,2.388-0.535
			c1.9,1.119,3.068,1.994,6.63,1.847c0,0,2.06-0.09,2.284-0.021c0,0,1.07-2.248,2.57-5.416c0,0,2.151-2.826,2.669-3.938
			c0,0-4.25-8.286-11.971-8.286C81.517,23.697,80.361,23.859,79.137,24.235"/>
	</g>
	<g>
		<g>
			<defs>
				<path id="SVGID_6_" d="M79.137,24.235c-9.897,3.034-12.82,11.362-12.969,13.74c-0.064,1.122,0.41,15.126,6.84,21.116
					c6.438,5.992,13.548,16.172,14.326,17.682c0.785,1.51,4.818,12.839-1.898,12.328c-3.456-0.266-6.022-4.092-9.45-8.573
					c-1.759-2.301-9.743-8.604-18.272-8.33c-15,0.486-27.377,8.084-33.319,13.935c-5.94,5.844-14.853,19.385-15.733,21.188
					c-0.873,1.805-3.263,9.309-3.263,9.309s-0.492,2.681,2.094,0l2.339-3.719c0,0-1.611,3.934-1.76,4.904
					c-0.14,0.979,1.649-0.813,1.649-0.813s-0.296,1.539,1.825-0.328c2.121-1.859,4.094-3.506,5.41-4.234
					c0.729-0.41,0.635,0.275,0.473,0.961c-0.133,0.549-0.309,1.102-0.146,1.084c0.367-0.039,1.021-0.111,2.924-1.314
					c1.9-1.207,7.305-4.313,9.459-5.078c2.157-0.77,5.23,0.072,6.396,0.365c1.169,0.293,9.94,5.951,16.59,4.967
					c6.653-0.983,10.851-3.436,12.056-3.762c0.604-0.168,2.055-0.029,3.691,0.105c1.624,0.139,3.432,0.27,4.783,0.109
					c5.699-0.658,14.105-3.726,17.319-6.281c2.764-2.193,11.034-9.207,9.798-18.414c-1.246-9.206-6.655-18.27-9.067-21.922
					c-2.409-3.651-10.182-11.717-11.541-14.834c-1.367-3.117-2.629-4.139-1.663-8.377c0,0,0.49-1.658,2.388-0.535
					c1.9,1.119,3.068,1.994,6.63,1.847c0,0,2.06-0.09,2.284-0.021c0,0,1.07-2.248,2.57-5.416c0,0,2.151-2.826,2.669-3.938
					c0,0-4.25-8.286-11.971-8.286C81.517,23.697,80.361,23.859,79.137,24.235"/>
			</defs>
			<clipPath id="SVGID_8_">
				<use xlink:href="#SVGID_6_"  overflow="visible"/>
			</clipPath>
			<rect x="4.905" y="23.697" clip-path="url(#SVGID_8_)" fill="#F0907B" width="96.629" height="95.607"/>
		</g>
	</g>
</g>
<g opacity="0.3" enable-background="new    ">
	<g>
		<path id="SVGID_7_" opacity="0.3" fill="#F4D19F" enable-background="new    " d="M92.925,30.383c0,0.474-1.13,0.617-1.534-0.293
			c-0.406-0.914-1.79-1.463-2.521-0.84c-0.73,0.623-0.911,1.426,0.252,3.363c1.178,1.938,0.808,3.98,0.808,3.98
			c-1.354,2.778-1.207,4.565-1.207,4.565l-0.017,0.111l0.676,0.073c0,0,1.013-1.877,1.486-3.248
			c0.676-1.969,1.764-3.084,2.108-3.481c0.34-0.392,1.639-2.624,1.639-2.624c-0.904-1.936-3.597-4.643-3.597-4.643
			S92.925,29.906,92.925,30.383"/>
	</g>
	<g>
		<g>
			<defs>
				<path id="SVGID_10_" d="M88.668,39.854c0.084-0.467,1.222-0.406,1.457,0.561c0.236,0.973,1.5,1.76,2.33,1.276
					c0.831-0.483,1.152-1.241,0.353-3.354c-0.813-2.115-0.083-4.061-0.083-4.061c1.826-2.492,2-4.276,2-4.276l0.035-0.106
					l-0.65-0.193c0,0-1.332,1.667-2.043,2.932c-1.015,1.816-2.283,2.721-2.694,3.05c-0.405,0.325-2.08,2.29-2.08,2.29
					c0.546,2.066,2.711,5.209,2.711,5.209S88.582,40.321,88.668,39.854"/>
			</defs>
			<clipPath id="SVGID_12_">
				<use xlink:href="#SVGID_10_"  overflow="visible"/>
			</clipPath>
			
				<rect x="87.279" y="28.042" transform="matrix(0.996 0.0895 -0.0895 0.996 3.527 -8.0245)" clip-path="url(#SVGID_12_)" fill="#F4D19F" width="7.887" height="14.533"/>
		</g>
	</g>
</g>
<path d="M91.977,31.721c0,0.42-0.339,0.757-0.752,0.757c-0.416,0-0.755-0.336-0.755-0.757c0-0.414,0.339-0.748,0.755-0.748
	C91.638,30.973,91.977,31.309,91.977,31.721"/>
<g>
	<g>
		<path id="SVGID_9_" fill="#F0907B" d="M65.729,109.297c-0.776,0.016-1.661,0.516-1.661,0.516
			c2.617,4.332,0.494,15.527,0.494,15.527l2.682-0.332c-0.881-5.748,1.955-15.578,1.955-15.578s-2.46-0.133-3.357-0.133
			C65.801,109.297,65.763,109.297,65.729,109.297"/>
	</g>
</g>
<path fill="#010202" d="M76.452,10.61c1.351-0.06,2.704-0.116,4.057-0.176c1.011-0.017,2.029-0.033,3.051-0.052
	c1.572,0.181,4.905,0.114,6.063-0.096c0.738-0.135,2.221-0.123,2.502,0.374c0.226,0.679-0.241,2.876-0.362,3.579
	c-0.433,2.458,0.005,5.542-0.05,8.415c1.477,0.093,3.521,1.937,4.229,2.979c0.236,0.358,0.838,0.982,0.75,1.612
	c-0.166,1.132-1.455,2.177-2.542,2.71c-2.136,1.051-5.42,0.993-7.897,0.502c-4.272-0.845-8.599-1.158-12.514-2.23
	c-1.77-0.482-5.529-0.391-5.063-2.789c0.414-0.248,0.763-0.454,1.388-0.458c0.255,0,0.509,0.005,0.762,0.011
	c0.521-0.14,1.261-0.525,1.794-0.48c-0.1-3.069,0.266-6.764-0.381-9.91c-0.146-0.708-0.48-3.202-0.104-3.482
	C73.153,10.473,75.349,11.096,76.452,10.61"/>
<g>
	<path fill="#FFFFFF" d="M156.334,48.006c-0.401,1.457-0.906,3.541-1.517,6.254c-0.601,2.711-1.256,5.807-1.938,9.283
		c-0.69,3.476-1.417,7.135-2.186,10.978c-0.771,3.841-1.459,7.625-2.063,11.35c-0.611,3.72-1.154,7.222-1.633,10.5
		c-0.492,3.275-0.77,6.037-0.854,8.31c-0.091,2.504-0.091,4.973,0,7.399c0.084,2.113,0.219,4.308,0.422,6.615
		c0.205,2.303,0.584,4.344,1.155,6.131c-1.366,0.644-2.6,1.109-3.636,1.386c-1.058,0.284-1.907,0.51-2.556,0.674
		c-0.812,0.164-1.496,0.244-2.068,0.244c-0.646,0-1.414-0.063-2.302-0.187c-0.882-0.115-1.69-0.543-2.425-1.269
		c-0.729-0.737-1.333-1.871-1.821-3.397c-0.48-1.535-0.644-3.763-0.48-6.683c0.077-1.934,0.386-4.346,0.901-7.223
		c0.534-2.865,1.154-6.02,1.881-9.465c0.732-3.43,1.563-6.994,2.493-10.672c0.937-3.688,1.837-7.28,2.728-10.809
		c0.889-3.513,1.72-6.854,2.495-10.006c0.757-3.154,1.43-5.869,1.993-8.132c0.73-2.916,1.538-6.308,2.431-10.19
		c1.535-6.637,3.843-16.58,6.921-29.858c0.559-0.403,1.172-0.784,1.823-1.147c0.64-0.36,1.213-0.672,1.694-0.912
		c0.569-0.322,1.131-0.56,1.706-0.725c2.576-0.974,4.42-1.095,5.508-0.363c1.1,0.728,1.717,2.188,1.887,4.362
		c0.081,1.459,0.258,3.57,0.552,6.313c0.273,2.758,0.537,5.828,0.771,9.221c0.251,3.396,0.462,6.904,0.614,10.503
		c0.166,3.592,0.237,6.933,0.237,10.003c0,2.034,0.048,4.416,0.125,7.164c0.082,2.753,0.205,5.668,0.368,8.741
		c0.157,3.069,0.352,6.205,0.607,9.407c0.237,3.193,0.523,6.24,0.851,9.154c0.325,2.922,0.664,5.588,1.034,8.012
		c0.364,2.427,0.746,4.41,1.146,5.943c0.157,0.656,0.344,1.26,0.551,1.826c0.197,0.563,0.383,1.129,0.543,1.688
		c0.479-1.938,1.039-4.235,1.634-6.905c0.615-2.677,1.252-5.521,1.938-8.55c0.695-3.043,1.354-6.161,2.018-9.354
		c0.644-3.19,1.2-6.205,1.692-9.042c0.404-2.261,0.855-5.178,1.331-8.73c0.485-3.564,1.056-7.408,1.697-11.529
		c-0.877-0.33-1.736-0.653-2.545-0.969c-0.733-0.321-1.459-0.735-2.177-1.215c-0.733-0.494-1.338-1.053-1.829-1.703
		c0.084-1.051,0.188-1.817,0.301-2.306c0.127-0.479,0.507-0.524,1.156-0.122c0.482,0.241,1.235,0.528,2.246,0.855
		c1.006,0.318,2.205,0.559,3.585,0.724c0.398-2.259,0.861-4.528,1.396-6.802c0.516-2.259,1.065-4.445,1.629-6.545
		c0.89-3.484,1.904-6.618,3.036-9.406c1.132-2.789,2.453-5.154,3.942-7.098c1.493-1.944,3.256-3.438,5.275-4.49
		c2.021-1.05,4.377-1.616,7.041-1.697c2.517,0,4.548,1.027,6.138,3.086c1.565,2.064,2.233,5.647,1.994,10.748
		c-0.166,3.809-0.943,7.211-2.365,10.252c-1.414,3.037-3.14,5.691-5.154,8.01c-2.023,2.3-4.25,4.199-6.672,5.701
		c-2.426,1.506-4.732,2.563-6.921,3.211c-0.728,3.812-1.419,7.635-2.063,11.47c-0.646,3.849-1.274,7.571-1.891,11.169
		c-0.592,3.6-1.203,7.02-1.817,10.252c-0.601,3.238-1.187,6.115-1.748,8.611c-0.569,2.434-1.184,5.055-1.818,7.896
		c-0.563,2.418-1.261,5.213-2.067,8.363c-0.813,3.164-1.663,6.479-2.544,9.959c-0.326,0.719-0.735,1.351-1.219,1.877
		c-0.487,0.532-0.967,0.946-1.457,1.274c-0.565,0.402-1.131,0.72-1.703,0.972c-1.608,0.647-2.991,0.764-4.118,0.362
		c-1.139-0.405-2.152-1.5-3.04-3.276c-0.887-1.865-1.684-4.158-2.362-6.912c-0.688-2.758-1.396-5.742-2.126-8.978
		c-0.713-3.489-1.274-7.272-1.643-11.352c-0.362-4.088-0.645-8.256-0.849-12.504c-0.193-4.236-0.339-8.479-0.413-12.686
		c-0.086-4.199-0.25-8.17-0.49-11.886c-0.408-4.853-0.814-9.2-1.215-13.049c-0.398-3.833-0.846-7.095-1.328-9.762
		c-0.332,1.614-0.694,3.432-1.098,5.458C157.268,43.836,156.814,45.907,156.334,48.006 M197.104,42.911
		c-0.403,1.538-0.726,2.996-0.972,4.361c1.947-1.122,3.765-2.562,5.47-4.304c1.69-1.738,3.146-3.584,4.359-5.521
		c1.217-1.94,2.159-3.882,2.858-5.824c0.688-1.938,1.063-3.715,1.154-5.336c0.072-1.142-0.027-2.042-0.313-2.735
		c-0.282-0.685-0.782-1.031-1.52-1.031c-0.402,0-1.025,0.222-1.877,0.671c-0.847,0.444-1.801,1.377-2.855,2.786
		c-1.051,1.412-2.114,3.458-3.219,6.137C199.111,34.772,198.081,38.375,197.104,42.911"/>
	<path fill="#FFFFFF" d="M232.262,106.7c-0.806,3.082-1.894,5.938-3.269,8.619c-1.381,2.67-3.02,4.978-4.918,6.916
		c-1.896,1.938-4.041,3.455-6.42,4.555c-2.396,1.087-5.01,1.628-7.838,1.628c-3.318,0-5.93-0.705-7.83-2.119
		c-1.906-1.414-3.309-3.166-4.247-5.287c-0.926-2.096-1.497-4.396-1.692-6.908c-0.204-2.506-0.309-4.857-0.309-7.039
		c0-1.535,0.175-3.229,0.539-5.096c0.374-1.859,0.873-3.763,1.52-5.701c0.65-1.937,1.479-3.887,2.495-5.83
		c1.002-1.943,2.2-3.721,3.571-5.33c0.492-1.389,1.236-2.598,2.248-3.646c1.006-1.048,2.18-1.916,3.523-2.611
		c1.33-0.684,2.766-1.208,4.303-1.572c1.545-0.366,3.029-0.543,4.492-0.543c0.246,0,0.459,0.037,0.666,0.125
		c0.198,0.074,0.424,0.158,0.666,0.236c1.053,0.09,2.377,0.484,3.94,1.211c1.584,0.728,3.117,1.822,4.613,3.279
		c1.496,1.453,2.775,3.293,3.82,5.515c1.055,2.229,1.584,4.922,1.584,8.084c0,0.646-0.041,1.432-0.119,2.36
		c-0.078,0.931-0.162,1.717-0.25,2.369c1.863-0.736,3.799-1.624,5.826-2.678c2.024-1.045,3.983-2.162,5.883-3.342
		c1.906-1.166,3.666-2.357,5.287-3.574c1.606-1.215,2.91-2.307,3.875-3.275c0.817-0.727,1.502-1.133,2.065-1.209
		c0.563-0.082,0.968,0.076,1.216,0.482c0.239,0.4,0.276,0.974,0.123,1.695c-0.169,0.729-0.613,1.535-1.339,2.426
		c-0.403,0.484-1.438,1.457-3.096,2.918c-1.664,1.455-3.615,3.029-5.883,4.729c-2.269,1.709-4.73,3.359-7.402,4.976
		C237.239,104.678,234.694,105.889,232.262,106.7 M203.995,109.611c0,1.463,0.076,2.902,0.244,4.314
		c0.158,1.408,0.48,2.668,0.959,3.758c0.49,1.086,1.142,1.986,1.953,2.666c0.805,0.688,1.857,1.035,3.146,1.035
		c1.459,0,2.795-0.347,4.004-1.035c1.225-0.68,2.305-1.58,3.28-2.666c0.976-1.09,1.834-2.35,2.605-3.758
		c0.777-1.412,1.436-2.896,2.006-4.431c-0.57,0.076-1.113,0.138-1.643,0.179c-0.519,0.035-1.117,0.061-1.765,0.061
		c-3.063,0-5.721-0.91-7.942-2.732c-2.228-1.813-3.938-4.137-5.158-6.977c-0.488,1.703-0.885,3.357-1.211,4.98
		C204.155,106.616,203.995,108.159,203.995,109.611 M211.758,88.258c-0.232,0.729-0.361,1.504-0.361,2.307
		c0,1.289,0.084,2.65,0.244,4.063c0.158,1.418,0.557,2.689,1.217,3.828c0.641,1.133,1.676,2.072,3.09,2.854
		c1.414,0.76,3.371,1.147,5.883,1.147c0.4,0,0.808-0.022,1.211-0.064c0.412-0.036,0.812-0.1,1.216-0.188
		c0.243-1.043,0.463-1.991,0.674-2.846c0.194-0.836,0.297-1.588,0.297-2.242c0.168-1.532,0.168-3.108,0-4.733
		c-0.16-1.613-0.463-3.09-0.9-4.433c-0.448-1.334-1.016-2.422-1.707-3.271c-0.688-0.851-1.51-1.271-2.479-1.271
		c-1.547,0-3.021,0.422-4.428,1.271C214.284,85.527,212.977,86.717,211.758,88.258"/>
	<path fill="#FFFFFF" d="M283.84,102.816c-0.406,2.51-0.789,4.896-1.152,7.162c-0.369,2.26-0.594,4.082-0.668,5.461
		c-0.08,2.021,0.283,3.479,1.094,4.365c0.801,0.895,1.701,1.34,2.67,1.34c1.129,0,2.527-0.564,4.185-1.705
		c1.657-1.135,3.42-2.543,5.276-4.244c1.859-1.699,3.713-3.551,5.584-5.584c1.865-2.016,3.584-3.938,5.154-5.768
		c1.58-1.814,2.916-3.408,4.008-4.783c1.084-1.379,1.836-2.26,2.24-2.676c0.494-0.479,0.988-0.769,1.525-0.854
		c0.518-0.069,0.952,0,1.27,0.246c0.318,0.242,0.479,0.685,0.479,1.336c0,0.653-0.322,1.457-0.964,2.429
		c-0.977,1.532-2.229,3.336-3.768,5.393c-1.539,2.066-3.23,4.195-5.094,6.381c-1.861,2.182-3.822,4.328-5.885,6.428
		c-2.054,2.105-4.123,3.963-6.188,5.582c-2.061,1.619-4.055,2.934-5.949,3.947c-1.905,1.008-3.619,1.516-5.162,1.516
		c-1.123,0-2.202-0.32-3.213-0.969c-1.01-0.654-1.916-1.494-2.729-2.543c-0.813-1.057-1.441-2.236-1.881-3.516
		c-0.449-1.306-0.632-2.597-0.554-3.892c0.086-0.563,0.209-1.539,0.369-2.909c-3.391,3.799-6.813,6.805-10.242,9.022
		c-3.449,2.229-6.742,3.348-9.896,3.348c-1.133,0-2.351-0.28-3.64-0.848c-1.301-0.563-2.448-1.494-3.463-2.8
		c-1.016-1.288-1.838-2.983-2.483-5.092c-0.646-2.109-0.892-4.655-0.736-7.646c0.248-4.689,1.178-9.135,2.789-13.346
		c1.621-4.215,3.664-7.869,6.139-10.988c2.461-3.105,5.265-5.58,8.367-7.396c3.119-1.818,6.256-2.733,9.412-2.733
		c1.367,0,2.615,0.35,3.756,1.036c1.14,0.691,2.105,1.576,2.914,2.67c0.813,1.094,1.469,2.285,2.002,3.583
		c0.521,1.293,0.908,2.502,1.148,3.637c0.569-2.344,1.102-4.649,1.58-6.915c0.493-2.27,0.975-4.409,1.459-6.428
		c0.805-2.994,1.657-6.239,2.551-9.708c0.795-3,1.729-6.437,2.791-10.32c1.041-3.882,2.219-7.97,3.514-12.254
		c0.808-0.651,1.58-1.142,2.312-1.46c0.723-0.324,1.412-0.564,2.057-0.727c0.73-0.252,1.422-0.366,2.074-0.366
		c0.803,0,1.521,0.106,2.176,0.297c0.648,0.207,1.191,0.733,1.643,1.589c0.438,0.842,0.744,2.116,0.91,3.82
		c0.158,1.695,0.158,4.004,0,6.918c-0.166,3.557-0.795,7.437-1.887,11.643c-1.088,4.215-2.529,8.567-4.307,13.053
		c-1.775,4.483-3.82,8.978-6.121,13.469C288.995,94.502,286.508,98.773,283.84,102.816 M276.676,104.4
		c0.324-1.535,0.625-3.078,0.91-4.607c0.28-1.539,0.635-3.121,1.039-4.742c-0.166,0.086-0.306,0.164-0.427,0.246
		c-0.117,0.082-0.266,0.166-0.428,0.234c-0.904,0.414-1.494,0.396-1.818-0.051c-0.319-0.447-0.493-1.148-0.493-2.125
		c0-0.492-0.043-1.357-0.111-2.609c-0.09-1.256-0.301-2.561-0.672-3.891c-0.363-1.328-0.912-2.496-1.64-3.516
		c-0.725-1.021-1.733-1.513-3.032-1.513c-1.857,0-3.759,0.945-5.703,2.849c-1.941,1.897-3.758,4.215-5.461,6.914
		c-1.699,2.721-3.111,5.604-4.254,8.676c-1.125,3.076-1.773,5.824-1.935,8.254c-0.168,3.885,0.32,6.676,1.455,8.377
		c1.137,1.695,2.672,2.543,4.609,2.543c1.463,0,3.049-0.563,4.791-1.697c1.748-1.127,3.446-2.504,5.102-4.117
		c1.664-1.631,3.191-3.287,4.609-4.979C274.631,106.946,275.784,105.527,276.676,104.4"/>
	<path fill="#FFFFFF" d="M343.907,102.816c-0.42,2.51-0.789,4.896-1.151,7.162c-0.355,2.26-0.601,4.082-0.672,5.461
		c-0.084,2.021,0.278,3.479,1.1,4.365c0.803,0.895,1.703,1.34,2.676,1.34c1.119,0,2.519-0.564,4.185-1.705
		c1.646-1.135,3.411-2.543,5.271-4.244c1.861-1.699,3.723-3.551,5.582-5.584c1.859-2.016,3.58-3.938,5.162-5.768
		c1.576-1.814,2.902-3.408,3.996-4.783c1.098-1.379,1.846-2.26,2.252-2.676c0.479-0.479,0.992-0.769,1.508-0.854
		c0.533-0.069,0.959,0,1.277,0.246c0.328,0.242,0.487,0.685,0.487,1.336c0,0.653-0.321,1.457-0.967,2.429
		c-0.971,1.532-2.229,3.336-3.768,5.393c-1.539,2.066-3.229,4.195-5.097,6.381c-1.862,2.182-3.828,4.328-5.887,6.428
		c-2.063,2.105-4.125,3.963-6.189,5.582c-2.063,1.619-4.051,2.934-5.944,3.947c-1.898,1.008-3.631,1.516-5.16,1.516
		c-1.123,0-2.201-0.32-3.209-0.969c-1.012-0.654-1.922-1.494-2.729-2.543c-0.814-1.057-1.438-2.236-1.878-3.516
		c-0.448-1.306-0.637-2.597-0.559-3.892c0.09-0.563,0.215-1.539,0.365-2.909c-3.396,3.799-6.808,6.805-10.258,9.022
		c-3.435,2.229-6.728,3.348-9.882,3.348c-1.137,0-2.338-0.28-3.646-0.848c-1.291-0.563-2.438-1.494-3.457-2.8
		c-1.014-1.288-1.834-2.983-2.486-5.092c-0.637-2.108-0.891-4.655-0.729-7.646c0.242-4.689,1.176-9.135,2.795-13.346
		c1.611-4.215,3.66-7.869,6.131-10.988c2.461-3.105,5.256-5.58,8.375-7.396c3.104-1.818,6.248-2.733,9.4-2.733
		c1.373,0,2.633,0.35,3.756,1.036c1.135,0.691,2.104,1.576,2.92,2.67c0.807,1.094,1.471,2.285,2.006,3.583
		c0.51,1.293,0.902,2.502,1.145,3.637c0.564-2.344,1.093-4.649,1.582-6.915c0.48-2.27,0.974-4.409,1.457-6.428
		c0.806-2.994,1.652-6.239,2.545-9.708c0.813-3,1.738-6.437,2.789-10.32c1.05-3.882,2.224-7.97,3.525-12.254
		c0.801-0.651,1.576-1.142,2.305-1.46c0.722-0.324,1.42-0.564,2.063-0.727c0.723-0.252,1.406-0.366,2.063-0.366
		c0.797,0,1.535,0.106,2.181,0.297c0.645,0.207,1.194,0.733,1.635,1.589c0.457,0.842,0.752,2.116,0.912,3.82
		c0.168,1.695,0.168,4.004,0,6.918c-0.16,3.557-0.775,7.437-1.875,11.643c-1.093,4.215-2.537,8.567-4.313,13.053
		c-1.779,4.483-3.822,8.978-6.131,13.469C349.059,94.502,346.575,98.773,343.907,102.816 M336.747,104.4
		c0.322-1.535,0.619-3.078,0.904-4.607c0.283-1.539,0.633-3.121,1.037-4.742c-0.162,0.086-0.305,0.164-0.426,0.246
		s-0.267,0.166-0.433,0.234c-0.891,0.414-1.498,0.396-1.813-0.051c-0.324-0.447-0.484-1.148-0.484-2.125
		c0-0.492-0.045-1.357-0.121-2.609c-0.082-1.256-0.313-2.561-0.662-3.891c-0.377-1.328-0.918-2.496-1.643-3.516
		c-0.732-1.021-1.738-1.513-3.037-1.513c-1.861,0-3.76,0.945-5.697,2.849c-1.944,1.897-3.764,4.215-5.467,6.914
		c-1.692,2.721-3.112,5.604-4.246,8.676c-1.137,3.076-1.782,5.824-1.936,8.254c-0.166,3.885,0.322,6.676,1.44,8.377
		c1.14,1.695,2.689,2.543,4.619,2.543c1.457,0,3.054-0.563,4.787-1.697c1.746-1.127,3.447-2.504,5.111-4.117
		c1.641-1.631,3.188-3.287,4.598-4.979C334.704,106.946,335.856,105.527,336.747,104.4"/>
	<path fill="#FFFFFF" d="M375.334,80.361c0.407-0.482,1.17-0.885,2.307-1.208c1.129-0.317,2.305-0.588,3.522-0.793
		c1.205-0.199,2.324-0.317,3.339-0.358c1.006-0.043,1.592-0.015,1.76,0.062c0.08,0.077-0.125,0.929-0.607,2.541
		c-0.49,1.629-1.096,3.524-1.826,5.711c-0.727,2.176-1.485,4.43-2.299,6.729c-0.813,2.306-1.42,4.188-1.828,5.642
		c-0.399,1.452-0.889,3.1-1.457,4.918c-0.565,1.817-1.063,3.604-1.514,5.346c-0.445,1.734-0.746,3.367-0.91,4.91
		c-0.162,1.53-0.037,2.713,0.363,3.515c0.404,0.973,0.855,1.635,1.346,2.006c0.48,0.366,1.008,0.545,1.568,0.545
		c1.617,0,3.658-0.883,6.125-2.67c2.477-1.773,4.982-3.902,7.531-6.367c2.545-2.469,4.91-4.984,7.096-7.523
		c2.178-2.553,3.807-4.592,4.854-6.131c0.654-0.813,1.313-1.328,1.998-1.568c0.691-0.252,1.259-0.203,1.703,0.119
		c0.438,0.318,0.687,0.848,0.732,1.578c0.031,0.721-0.234,1.574-0.797,2.549c-1.289,2.266-3.193,4.945-5.697,8.066
		c-2.51,3.111-5.18,6.104-8.018,8.977c-2.826,2.871-5.597,5.322-8.308,7.344c-2.719,2.025-4.916,3.07-6.619,3.154
		c-1.366,0.076-2.725-0.135-4.063-0.662c-1.332-0.533-2.553-1.26-3.646-2.188c-1.082-0.924-1.994-2.025-2.717-3.285
		c-0.736-1.244-1.135-2.561-1.227-3.941c-0.232-2.021-0.232-4.791,0-8.311c0.252-3.521,0.696-7.111,1.346-10.791
		c0.648-3.688,1.473-7.178,2.479-10.502C372.893,84.452,374.045,81.986,375.334,80.361 M392.081,54.52
		c-0.239,0.892-0.717,1.76-1.397,2.613c-0.676,0.849-1.451,1.535-2.307,2.063c-0.841,0.522-1.718,0.868-2.611,1.021
		c-0.881,0.168-1.615,0-2.178-0.478c-1.697-1.294-2.586-2.69-2.668-4.194c-0.089-1.49,0.274-2.908,1.09-4.24
		c0.809-1.332,1.815-2.465,3.041-3.401c1.211-0.931,2.26-1.474,3.146-1.64c0.896-0.16,1.644,0.021,2.244,0.548
		c0.607,0.528,1.072,1.212,1.398,2.063c0.315,0.853,0.5,1.803,0.549,2.848C392.418,52.783,392.317,53.715,392.081,54.52"/>
</g>
<g opacity="0.8" enable-background="new    ">
	<g>
		<path id="SVGID_11_" opacity="0.3" fill="#F4D19F" enable-background="new    " d="M46.127,78.819
			c-17.031,5.407-27.705,22.215-27.705,22.215s-3.428,4.166-2.112,4.968c1.31,0.807,8.329-6.138,9.203-7.015
			c0.879-0.877-0.659,2.047-0.292,2.776s1.973-0.221,2.928-0.803c0.509-0.313,0.173,0.443-0.04,1.207
			c-0.183,0.652-0.278,1.312,0.324,1.273c1.315-0.072,7.75-3.213,11.258-6.793c3.511-3.582-4.241,5.994-3.21,7.088
			c1.02,1.096,5.548-2.854,5.548-2.854s0.435,0.731,1.901-0.068c1.461-0.807,5.915-4.461,5.915-4.461s-6.427,8.479-5.622,10.301
			c0.802,1.83,6.5-2.117,6.5-2.117s-0.359,1.021,0.949,0.367c1.314-0.658,7.453-5.332,7.453-5.332s-4.821,5.186-0.508,5.041
			c4.312-0.148,10.297-3.143,10.297-3.143s-2.479,3.215-1.457,3.434c1.021,0.22,11.399-5.188,12.42-9.646
			c1.021-4.453-5.412-9.498-5.412-9.498s-7.618-8.313-19.758-8.313C52.056,77.449,49.183,77.851,46.127,78.819"/>
	</g>
</g>
</svg>
