<?xml version="1.0" encoding="utf-8"?>
<!-- Generator: Adobe Illustrator 16.0.0, SVG Export Plug-In . SVG Version: 6.00 Build 0)  -->
<!DOCTYPE svg PUBLIC "-//W3C//DTD SVG 1.1//EN" "http://www.w3.org/Graphics/SVG/1.1/DTD/svg11.dtd">
<svg version="1.1" id="Calque_1" xmlns="http://www.w3.org/2000/svg" xmlns:xlink="http://www.w3.org/1999/xlink" x="0px" y="0px"
	 width="125.75px" height="139px" viewBox="0 0 125.75 139" enable-background="new 0 0 125.75 139" xml:space="preserve">
<path fill="none" stroke="#FFFFFF" stroke-width="1.9895" stroke-miterlimit="10" stroke-dasharray="3.979,3.3426" d="
	M117.48,72.416c0,29.506-23.913,53.418-53.422,53.418c-29.5,0-53.413-23.912-53.413-53.418C10.646,42.914,34.559,19,64.059,19
	C93.567,18.998,117.48,42.913,117.48,72.416z"/>
<path fill="#F0907B" d="M89.381,41.344c0,0,4.969,1.168,5.333,5.479c0.365,4.313,1.098,7.236,2.928,5.482
	c1.821-1.754,2.48-10.646,2.339-12.545c-0.149-1.901-0.808-3.313-1.466-4.045c-0.66-0.729-3.899-3.58-3.899-3.58
	S90.803,36.801,89.381,41.344"/>
<g opacity="0.3" enable-background="new    ">
	<g>
		<path id="SVGID_1_" opacity="0.3" fill="#F4D19F" enable-background="new    " d="M89.381,41.344
			c4.382,1.19,5.208,4.578,5.208,4.578c4.308-4.436-2-10.929-2-10.929c-0.848,0.673-3.235,6.472-3.235,6.472"/>
	</g>
</g>
<g opacity="0.3" enable-background="new    ">
	<g>
		<path id="SVGID_3_" opacity="0.3" fill="#F4D19F" enable-background="new    " d="M93.229,34.268c0,0,5.262,6.033,6.527,8.813
			c0,0,1.189-5.343-1.65-7.879c-2.656-2.357-3.055-2.788-3.489-3.204L93.229,34.268z"/>
	</g>
	<g>
		<g>
			<defs>
				<path id="SVGID_2_" d="M93.229,34.268c0,0,5.262,6.033,6.527,8.813c0,0,1.189-5.343-1.65-7.879
					c-2.656-2.357-3.055-2.788-3.489-3.204L93.229,34.268z"/>
			</defs>
			<clipPath id="SVGID_4_">
				<use xlink:href="#SVGID_2_"  overflow="visible"/>
			</clipPath>
			<rect x="93.229" y="31.997" clip-path="url(#SVGID_4_)" fill="#F4D19F" width="7.718" height="11.083"/>
		</g>
	</g>
</g>
<g>
	<g>
		<path id="SVGID_5_" fill="#F0907B" d="M79.137,24.235c-9.897,3.034-12.82,11.362-12.969,13.74
			c-0.064,1.122,0.41,15.126,6.84,21.116c6.438,5.992,13.548,16.172,14.326,17.682c0.785,1.51,4.818,12.839-1.898,12.328
			c-3.456-0.266-6.022-4.092-9.45-8.573c-1.759-2.301-9.743-8.604-18.272-8.33c-15,0.486-27.377,8.084-33.319,13.935
			c-5.94,5.844-14.853,19.385-15.733,21.188c-0.873,1.805-3.263,9.309-3.263,9.309s-0.492,2.681,2.094,0l2.339-3.719
			c0,0-1.611,3.934-1.76,4.904c-0.14,0.979,1.649-0.813,1.649-0.813s-0.296,1.539,1.825-0.328c2.121-1.859,4.094-3.506,5.41-4.234
			c0.729-0.41,0.635,0.275,0.473,0.961c-0.133,0.549-0.309,1.102-0.146,1.084c0.367-0.039,1.021-0.111,2.924-1.314
			c1.9-1.207,7.305-4.313,9.459-5.078c2.157-0.77,5.23,0.072,6.396,0.365c1.169,0.293,9.94,5.951,16.59,4.967
			c6.653-0.983,10.851-3.436,12.056-3.762c0.604-0.168,2.055-0.029,3.691,0.105c1.624,0.139,3.432,0.27,4.783,0.109
			c5.699-0.658,14.105-3.726,17.319-6.281c2.764-2.193,11.034-9.207,9.798-18.414c-1.246-9.206-6.655-18.27-9.067-21.922
			c-2.409-3.651-10.182-11.717-11.541-14.834c-1.367-3.117-2.629-4.139-1.663-8.377c0,0,0.49-1.658,2.388-0.535
			c1.9,1.119,3.068,1.994,6.63,1.847c0,0,2.06-0.09,2.284-0.021c0,0,1.07-2.248,2.57-5.416c0,0,2.151-2.826,2.669-3.938
			c0,0-4.25-8.286-11.971-8.286C81.517,23.697,80.361,23.859,79.137,24.235"/>
	</g>
	<g>
		<g>
			<defs>
				<path id="SVGID_6_" d="M79.137,24.235c-9.897,3.034-12.82,11.362-12.969,13.74c-0.064,1.122,0.41,15.126,6.84,21.116
					c6.438,5.992,13.548,16.172,14.326,17.682c0.785,1.51,4.818,12.839-1.898,12.328c-3.456-0.266-6.022-4.092-9.45-8.573
					c-1.759-2.301-9.743-8.604-18.272-8.33c-15,0.486-27.377,8.084-33.319,13.935c-5.94,5.844-14.853,19.385-15.733,21.188
					c-0.873,1.805-3.263,9.309-3.263,9.309s-0.492,2.681,2.094,0l2.339-3.719c0,0-1.611,3.934-1.76,4.904
					c-0.14,0.979,1.649-0.813,1.649-0.813s-0.296,1.539,1.825-0.328c2.121-1.859,4.094-3.506,5.41-4.234
					c0.729-0.41,0.635,0.275,0.473,0.961c-0.133,0.549-0.309,1.102-0.146,1.084c0.367-0.039,1.021-0.111,2.924-1.314
					c1.9-1.207,7.305-4.313,9.459-5.078c2.157-0.77,5.23,0.072,6.396,0.365c1.169,0.293,9.94,5.951,16.59,4.967
					c6.653-0.983,10.851-3.436,12.056-3.762c0.604-0.168,2.055-0.029,3.691,0.105c1.624,0.139,3.432,0.27,4.783,0.109
					c5.699-0.658,14.105-3.726,17.319-6.281c2.764-2.193,11.034-9.207,9.798-18.414c-1.246-9.206-6.655-18.27-9.067-21.922
					c-2.409-3.651-10.182-11.717-11.541-14.834c-1.367-3.117-2.629-4.139-1.663-8.377c0,0,0.49-1.658,2.388-0.535
					c1.9,1.119,3.068,1.994,6.63,1.847c0,0,2.06-0.09,2.284-0.021c0,0,1.07-2.248,2.57-5.416c0,0,2.151-2.826,2.669-3.938
					c0,0-4.25-8.286-11.971-8.286C81.517,23.697,80.361,23.859,79.137,24.235"/>
			</defs>
			<clipPath id="SVGID_8_">
				<use xlink:href="#SVGID_6_"  overflow="visible"/>
			</clipPath>
			<rect x="4.905" y="23.697" clip-path="url(#SVGID_8_)" fill="#F0907B" width="96.629" height="95.607"/>
		</g>
	</g>
</g>
<g opacity="0.3" enable-background="new    ">
	<g>
		<path id="SVGID_7_" opacity="0.3" fill="#F4D19F" enable-background="new    " d="M92.925,30.383c0,0.474-1.13,0.617-1.534-0.293
			c-0.406-0.914-1.79-1.463-2.521-0.84c-0.73,0.623-0.911,1.426,0.252,3.363c1.178,1.938,0.808,3.98,0.808,3.98
			c-1.354,2.778-1.207,4.565-1.207,4.565l-0.017,0.111l0.676,0.073c0,0,1.013-1.877,1.486-3.248
			c0.676-1.969,1.764-3.084,2.108-3.481c0.34-0.392,1.639-2.624,1.639-2.624c-0.904-1.936-3.597-4.643-3.597-4.643
			S92.925,29.906,92.925,30.383"/>
	</g>
	<g>
		<g>
			<defs>
				<path id="SVGID_10_" d="M88.668,39.854c0.084-0.467,1.222-0.406,1.457,0.561c0.236,0.973,1.5,1.76,2.33,1.276
					c0.831-0.483,1.152-1.241,0.353-3.354c-0.813-2.115-0.083-4.061-0.083-4.061c1.826-2.492,2-4.276,2-4.276l0.035-0.106
					l-0.65-0.193c0,0-1.332,1.667-2.043,2.932c-1.015,1.816-2.283,2.721-2.694,3.05c-0.405,0.325-2.08,2.29-2.08,2.29
					c0.546,2.066,2.711,5.209,2.711,5.209S88.582,40.321,88.668,39.854"/>
			</defs>
			<clipPath id="SVGID_12_">
				<use xlink:href="#SVGID_10_"  overflow="visible"/>
			</clipPath>
			
				<rect x="87.279" y="28.042" transform="matrix(0.996 0.0895 -0.0895 0.996 3.527 -8.0245)" clip-path="url(#SVGID_12_)" fill="#F4D19F" width="7.887" height="14.533"/>
		</g>
	</g>
</g>
<path d="M91.977,31.721c0,0.42-0.339,0.757-0.752,0.757c-0.416,0-0.755-0.336-0.755-0.757c0-0.414,0.339-0.748,0.755-0.748
	C91.638,30.973,91.977,31.309,91.977,31.721"/>
<g>
	<g>
		<path id="SVGID_9_" fill="#F0907B" d="M65.729,109.297c-0.776,0.016-1.661,0.516-1.661,0.516
			c2.617,4.332,0.494,15.527,0.494,15.527l2.682-0.332c-0.881-5.748,1.955-15.578,1.955-15.578s-2.46-0.133-3.357-0.133
			C65.801,109.297,65.763,109.297,65.729,109.297"/>
	</g>
</g>
<path fill="#010202" d="M76.452,10.61c1.351-0.06,2.704-0.116,4.057-0.176c1.011-0.017,2.029-0.033,3.051-0.052
	c1.572,0.181,4.905,0.114,6.063-0.096c0.738-0.135,2.221-0.123,2.502,0.374c0.226,0.679-0.241,2.876-0.362,3.579
	c-0.433,2.458,0.005,5.542-0.05,8.415c1.477,0.093,3.521,1.937,4.229,2.979c0.236,0.358,0.838,0.982,0.75,1.612
	c-0.166,1.132-1.455,2.177-2.542,2.71c-2.136,1.051-5.42,0.993-7.897,0.502c-4.272-0.845-8.599-1.158-12.514-2.23
	c-1.77-0.482-5.529-0.391-5.063-2.789c0.414-0.248,0.763-0.454,1.388-0.458c0.255,0,0.509,0.005,0.762,0.011
	c0.521-0.14,1.261-0.525,1.794-0.48c-0.1-3.069,0.266-6.764-0.381-9.91c-0.146-0.708-0.48-3.202-0.104-3.482
	C73.153,10.473,75.349,11.096,76.452,10.61"/>
<g opacity="0.8" enable-background="new    ">
	<g>
		<path id="SVGID_11_" opacity="0.3" fill="#F4D19F" enable-background="new    " d="M46.127,78.819
			c-17.031,5.407-27.705,22.215-27.705,22.215s-3.428,4.166-2.112,4.968c1.31,0.807,8.329-6.138,9.203-7.015
			c0.879-0.877-0.659,2.047-0.292,2.776s1.973-0.221,2.928-0.803c0.509-0.313,0.173,0.443-0.04,1.207
			c-0.183,0.652-0.278,1.312,0.324,1.273c1.315-0.072,7.75-3.213,11.258-6.793c3.511-3.582-4.241,5.994-3.21,7.088
			c1.02,1.096,5.548-2.854,5.548-2.854s0.435,0.731,1.901-0.068c1.461-0.807,5.915-4.461,5.915-4.461s-6.427,8.479-5.622,10.301
			c0.802,1.83,6.5-2.117,6.5-2.117s-0.359,1.021,0.949,0.367c1.314-0.658,7.453-5.332,7.453-5.332s-4.821,5.186-0.508,5.041
			c4.312-0.148,10.297-3.143,10.297-3.143s-2.479,3.215-1.457,3.434c1.021,0.22,11.399-5.188,12.42-9.646
			c1.021-4.453-5.412-9.498-5.412-9.498s-7.618-8.313-19.758-8.313C52.056,77.449,49.183,77.851,46.127,78.819"/>
	</g>
</g>
</svg>
